<svg width="80" height="75" viewBox="0 0 80 75" fill="none" xmlns="http://www.w3.org/2000/svg">
<g filter="url(#filter0_ddd_2588_1926)">
<path d="M32.4457 28.2219H27.1124C26.1306 28.2219 25.3346 27.426 25.3346 26.4441V19.333C25.3346 18.3512 24.5387 17.5552 23.5569 17.5552H16.4457C15.4639 17.5552 14.668 18.3512 14.668 19.333V53.1108C14.668 54.0926 15.4639 54.8886 16.4457 54.8886H23.5569C24.5387 54.8886 25.3346 54.0926 25.3346 53.1108L25.3346 37.1108C25.3346 36.1289 26.1306 35.333 27.1124 35.333H32.4458C33.4276 35.333 34.2235 36.1289 34.2235 37.1108L34.2235 58.4441C34.2235 59.426 35.0195 60.2219 36.0013 60.2219H43.1124C44.0943 60.2219 44.8902 59.426 44.8902 58.4441L44.8902 15.7775C44.8902 14.7956 45.6861 13.9997 46.668 13.9997H62.668C63.6498 13.9997 64.4458 13.2037 64.4458 12.2219V5.1108C64.4458 4.12896 63.6498 3.33302 62.668 3.33302L36.0013 3.33301C35.0195 3.33301 34.2235 4.12895 34.2235 5.11079V11.84L34.2235 26.4441C34.2235 27.426 33.4276 28.2219 32.4457 28.2219Z" fill="#120D0F"/>
<path d="M48.4457 45.9997V19.333C48.4457 18.3512 49.2417 17.5552 50.2235 17.5552H57.3346C58.3165 17.5552 59.1124 18.3512 59.1124 19.333V45.9997C59.1124 46.9815 58.3165 47.7775 57.3346 47.7775H50.2235C49.2417 47.7775 48.4457 46.9815 48.4457 45.9997Z" fill="#120D0F"/>
<path d="M32.4457 28.2219H27.1124C26.1306 28.2219 25.3346 27.426 25.3346 26.4441V19.333C25.3346 18.3512 24.5387 17.5552 23.5569 17.5552H16.4457C15.4639 17.5552 14.668 18.3512 14.668 19.333V53.1108C14.668 54.0926 15.4639 54.8886 16.4457 54.8886H23.5569C24.5387 54.8886 25.3346 54.0926 25.3346 53.1108L25.3346 37.1108C25.3346 36.1289 26.1306 35.333 27.1124 35.333H32.4458C33.4276 35.333 34.2235 36.1289 34.2235 37.1108L34.2235 58.4441C34.2235 59.426 35.0195 60.2219 36.0013 60.2219H43.1124C44.0943 60.2219 44.8902 59.426 44.8902 58.4441L44.8902 15.7775C44.8902 14.7956 45.6861 13.9997 46.668 13.9997H62.668C63.6498 13.9997 64.4458 13.2037 64.4458 12.2219V5.1108C64.4458 4.12896 63.6498 3.33302 62.668 3.33302L36.0013 3.33301C35.0195 3.33301 34.2235 4.12895 34.2235 5.11079V11.84L34.2235 26.4441C34.2235 27.426 33.4276 28.2219 32.4457 28.2219Z" stroke="#B9CFD4" stroke-width="0.888889"/>
<path d="M48.4457 45.9997V19.333C48.4457 18.3512 49.2417 17.5552 50.2235 17.5552H57.3346C58.3165 17.5552 59.1124 18.3512 59.1124 19.333V45.9997C59.1124 46.9815 58.3165 47.7775 57.3346 47.7775H50.2235C49.2417 47.7775 48.4457 46.9815 48.4457 45.9997Z" stroke="#B9CFD4" stroke-width="0.888889"/>
</g>
<path d="M35.1159 29.9992H24.4492C23.9583 29.9992 23.5603 29.6013 23.5603 29.1104L23.5603 20.2215C23.5603 19.7305 23.1624 19.3326 22.6714 19.3326H17.3381C16.8472 19.3326 16.4492 19.7305 16.4492 20.2215V52.2215C16.4492 52.7124 16.8472 53.1104 17.3381 53.1104H22.6714C23.1624 53.1104 23.5603 52.7124 23.5603 52.2215L23.5603 34.4437C23.5603 33.9528 23.9583 33.5548 24.4492 33.5548H35.1159C35.6068 33.5548 36.0048 33.9528 36.0048 34.4437L36.0048 57.5548C36.0048 58.0457 36.4027 58.4437 36.8937 58.4437H42.227C42.7179 58.4437 43.1159 58.0457 43.1159 57.5548L43.1159 12.7284C43.1159 12.2375 43.5139 11.8395 44.0048 11.8395H61.7826C62.2735 11.8395 62.6714 11.4416 62.6714 10.9506V5.99925C62.6714 5.50833 62.2735 5.11036 61.7826 5.11036L36.8937 5.11035C36.4028 5.11035 36.0048 5.50832 36.0048 5.99924V11.8395V29.1104C36.0048 29.6013 35.6068 29.9992 35.1159 29.9992Z" fill="#FBA002"/>
<path d="M50.227 45.1104L50.227 20.2215C50.227 19.7305 50.625 19.3326 51.1159 19.3326H56.4492C56.9401 19.3326 57.3381 19.7305 57.3381 20.2215L57.3381 45.1104C57.3381 45.6013 56.9401 45.9992 56.4492 45.9992H51.1159C50.625 45.9992 50.227 45.6013 50.227 45.1104Z" fill="#FBA002"/>
<defs>
<filter id="filter0_ddd_2588_1926" x="0.000432968" y="2.88867" width="79.1124" height="71.9996" filterUnits="userSpaceOnUse" color-interpolation-filters="sRGB">
<feFlood flood-opacity="0" result="BackgroundImageFix"/>
<feColorMatrix in="SourceAlpha" type="matrix" values="0 0 0 0 0 0 0 0 0 0 0 0 0 0 0 0 0 0 127 0" result="hardAlpha"/>
<feOffset dy="7.11111"/>
<feGaussianBlur stdDeviation="3.55556"/>
<feComposite in2="hardAlpha" operator="out"/>
<feColorMatrix type="matrix" values="0 0 0 0 0 0 0 0 0 0 0 0 0 0 0 0 0 0 0.25 0"/>
<feBlend mode="normal" in2="BackgroundImageFix" result="effect1_dropShadow_2588_1926"/>
<feColorMatrix in="SourceAlpha" type="matrix" values="0 0 0 0 0 0 0 0 0 0 0 0 0 0 0 0 0 0 127 0" result="hardAlpha"/>
<feOffset dx="7.11111" dy="7.11111"/>
<feGaussianBlur stdDeviation="3.55556"/>
<feComposite in2="hardAlpha" operator="out"/>
<feColorMatrix type="matrix" values="0 0 0 0 0 0 0 0 0 0 0 0 0 0 0 0 0 0 0.25 0"/>
<feBlend mode="normal" in2="effect1_dropShadow_2588_1926" result="effect2_dropShadow_2588_1926"/>
<feColorMatrix in="SourceAlpha" type="matrix" values="0 0 0 0 0 0 0 0 0 0 0 0 0 0 0 0 0 0 127 0" result="hardAlpha"/>
<feOffset dx="-7.11111" dy="7.11111"/>
<feGaussianBlur stdDeviation="3.55556"/>
<feComposite in2="hardAlpha" operator="out"/>
<feColorMatrix type="matrix" values="0 0 0 0 0 0 0 0 0 0 0 0 0 0 0 0 0 0 0.25 0"/>
<feBlend mode="normal" in2="effect2_dropShadow_2588_1926" result="effect3_dropShadow_2588_1926"/>
<feBlend mode="normal" in="SourceGraphic" in2="effect3_dropShadow_2588_1926" result="shape"/>
</filter>
</defs>
</svg>
