<svg width="48" height="39" viewBox="0 0 48 39" fill="none" xmlns="http://www.w3.org/2000/svg">
<path d="M5 2.25H34.2129C40.1498 2.25021 44.9629 7.06307 44.9629 13V33.7109C44.9629 35.2296 43.7315 36.4607 42.2129 36.4609H19C9.74923 36.4609 2.25 28.9617 2.25 19.7109V5C2.25 3.48122 3.48122 2.25 5 2.25Z" stroke="black" stroke-width="2.5"/>
<path d="M6 2.9375H33.2129C39.3224 2.93771 44.2754 7.89048 44.2754 14V32.7109C44.2754 34.4022 42.9041 35.7732 41.2129 35.7734H20C10.5766 35.7734 2.9375 28.1343 2.9375 18.7109V6C2.9375 4.30863 4.30863 2.9375 6 2.9375Z" fill="#120D0F"/>
<path d="M6 2.9375H33.2129C39.3224 2.93771 44.2754 7.89048 44.2754 14V32.7109C44.2754 34.4022 42.9041 35.7732 41.2129 35.7734H20C10.5766 35.7734 2.9375 28.1343 2.9375 18.7109V6C2.9375 4.30863 4.30863 2.9375 6 2.9375Z" stroke="#FBA002" stroke-width="1.875"/>
<path d="M16.5125 18.4092H10.8381V13.6777H8V27.8721H10.8381V20.3018H16.5125V30.7109H19.35L19.35 10.8389H33.5375V30.7109H36.375V10.8389H39.2125L39.2125 8H16.5125L16.5125 18.4092Z" fill="#B9CFD4"/>
<path d="M22.1875 25.0332V13.6777H25.025V25.0332H22.1875Z" fill="#B9CFD4"/>
<path d="M27.8625 25.0332V13.6777H30.7V25.0332H27.8625Z" fill="#B9CFD4"/>
<path d="M22.1875 28.7074C22.1875 28.5529 22.2272 28.413 22.3065 28.2877C22.3872 28.161 22.4944 28.06 22.628 27.9848C22.7616 27.9097 22.9098 27.8721 23.0726 27.8721H24.4774V28.3106H23.0726C22.9501 28.3106 22.8451 28.3496 22.7574 28.4276C22.6711 28.5042 22.628 28.5968 22.628 28.7054V29.8777C22.628 29.9863 22.6711 30.0795 22.7574 30.1575C22.8451 30.2341 22.9501 30.2724 23.0726 30.2724H23.7677C23.8916 30.2724 23.9966 30.2341 24.0829 30.1575C24.1692 30.0795 24.2123 29.9863 24.2123 29.8777V29.4892H23.4066V29.0506H24.6528V29.8756C24.6528 30.0287 24.6131 30.1686 24.5338 30.2953C24.4545 30.422 24.3473 30.523 24.2123 30.5982C24.0787 30.6733 23.9305 30.7109 23.7677 30.7109H23.0726C22.9098 30.7109 22.7616 30.6733 22.628 30.5982C22.4944 30.523 22.3872 30.422 22.3065 30.2953C22.2272 30.1686 22.1875 30.0287 22.1875 29.8756V28.7074Z" fill="#FBA002"/>
<path d="M25.4418 27.8721L26.2559 28.8669L27.0658 27.8721H27.6002L26.4813 29.2929V30.7109H26.0305V29.2929L24.9053 27.8721H25.4418Z" fill="#FBA002"/>
<path d="M27.978 27.8721H28.3809L29.339 28.9128L30.2972 27.8721H30.7V30.7109H30.2596V28.4909L29.5227 29.3848H29.1574L28.4185 28.4909V30.7109H27.978V27.8721Z" fill="#FBA002"/>
</svg>
