<svg width="267" height="222" viewBox="0 0 267 222" fill="none" xmlns="http://www.w3.org/2000/svg">
<path d="M186 17.875C220.173 17.875 247.875 45.5774 247.875 79.75V182.25C247.875 194.331 238.081 204.125 226 204.125H111C60.2588 204.125 19.125 162.991 19.125 112.25V39.75C19.125 27.6688 28.9188 17.875 41 17.875H186Z" stroke="#B9CFD4" stroke-width="3.75"/>
<path d="M41 21H186C218.447 21 244.75 47.3033 244.75 79.75V182.25C244.75 192.605 236.355 201 226 201H111C61.9847 201 22.25 161.265 22.25 112.25V39.75C22.25 29.5566 30.3841 21.2628 40.5156 21.0059L41 21Z" fill="black" fill-opacity="0.12"/>
<path d="M41 21H186C218.447 21 244.75 47.3033 244.75 79.75V182.25C244.75 192.605 236.355 201 226 201H111C61.9847 201 22.25 161.265 22.25 112.25V39.75C22.25 29.5566 30.3841 21.2628 40.5156 21.0059L41 21Z" stroke="#120D0F" stroke-width="2.5"/>
<path d="M42.25 28.5H184.75C213.745 28.5 237.25 52.0051 237.25 81V181C237.25 187.904 231.654 193.5 224.75 193.5H112.25C66.6865 193.5 29.75 156.563 29.75 111V41C29.75 34.0964 35.3464 28.5 42.25 28.5Z" fill="black" fill-opacity="0.12"/>
<path d="M42.25 28.5H184.75C213.745 28.5 237.25 52.0051 237.25 81V181C237.25 187.904 231.654 193.5 224.75 193.5H112.25C66.6865 193.5 29.75 156.563 29.75 111V41C29.75 34.0964 35.3464 28.5 42.25 28.5Z" stroke="#120D0F" stroke-width="5"/>
<path d="M212.624 53.3047C214.695 53.3047 216.374 54.9836 216.374 57.0547V66.249C216.374 68.3201 214.695 69.999 212.624 69.999H203.437C202.746 69.999 202.187 70.5587 202.187 71.249V165.609C202.187 167.68 200.508 169.359 198.437 169.359H189.249C187.178 169.359 185.499 167.68 185.499 165.609V71.249C185.499 70.5587 184.939 69.999 184.249 69.999H118.312C117.621 69.999 117.062 70.5587 117.062 71.249V165.609C117.062 167.68 115.383 169.359 113.312 169.359H104.124C102.053 169.359 100.374 167.68 100.374 165.609V118.563C100.374 117.873 99.8144 117.313 99.124 117.313H75.752C75.0616 117.313 74.502 117.873 74.502 118.563V151.415C74.5019 153.486 72.823 155.165 70.752 155.165H61.5615C59.4905 155.165 57.8115 153.486 57.8115 151.415V85.4434C57.8115 83.3723 59.4905 81.6934 61.5615 81.6934H70.752C72.823 81.6934 74.502 83.3723 74.502 85.4434V104.101C74.502 104.791 75.0616 105.351 75.752 105.351H99.124C99.8144 105.351 100.374 104.791 100.374 104.101V57.0547C100.374 54.9836 102.053 53.3047 104.124 53.3047H212.624ZM141.687 81.6934C143.758 81.6934 145.437 83.3723 145.437 85.4434V137.221C145.437 139.292 143.758 140.971 141.687 140.971H132.499C130.428 140.971 128.749 139.292 128.749 137.221V85.4434C128.749 83.3723 130.428 81.6934 132.499 81.6934H141.687ZM170.062 81.6934C172.133 81.6934 173.812 83.3723 173.812 85.4434V137.221C173.812 139.292 172.133 140.971 170.062 140.971H160.874C158.803 140.971 157.124 139.292 157.124 137.221V85.4434C157.124 83.3723 158.803 81.6934 160.874 81.6934H170.062Z" fill="#120D0F" stroke="#B9CFD4" stroke-width="2.5"/>
<path d="M140.353 153.165C141.372 153.165 142.198 153.992 142.198 155.012C142.198 156.031 141.372 156.857 140.353 156.857H134.425C133.987 156.857 133.641 156.991 133.347 157.253V157.254C133.064 157.504 132.951 157.767 132.951 158.081V163.943C132.951 164.256 133.063 164.523 133.346 164.78C133.639 165.035 133.986 165.167 134.425 165.167H137.9C138.348 165.167 138.69 165.034 138.973 164.785C139.259 164.526 139.373 164.258 139.373 163.943C139.373 163.285 138.839 162.751 138.181 162.751H137.19C136.171 162.751 135.345 161.924 135.345 160.904C135.345 159.885 136.171 159.058 137.19 159.058H139.825C141.62 159.058 143.075 160.513 143.075 162.308V163.933C143.075 164.835 142.839 165.674 142.366 166.43C141.9 167.174 141.27 167.766 140.488 168.201L140.487 168.2C139.701 168.642 138.834 168.859 137.9 168.859H134.425C133.49 168.859 132.62 168.642 131.833 168.199C131.06 167.764 130.432 167.174 129.961 166.435L129.958 166.43C129.485 165.674 129.249 164.835 129.249 163.933V158.092C129.249 157.183 129.484 156.343 129.96 155.592L129.961 155.59C130.432 154.85 131.06 154.26 131.833 153.825C132.62 153.382 133.49 153.165 134.425 153.165H140.353ZM154.892 153.165C156.397 153.165 157.24 154.902 156.309 156.085L152.593 160.803C152.35 161.111 152.218 161.493 152.218 161.886V166.982C152.218 168.019 151.377 168.859 150.341 168.859C149.304 168.859 148.464 168.019 148.464 166.982V161.889C148.464 161.495 148.331 161.112 148.086 160.803L144.354 156.092C143.417 154.908 144.261 153.165 145.771 153.165C146.312 153.165 146.825 153.408 147.168 153.827L148.981 156.044C149.683 156.901 150.994 156.899 151.693 156.04L153.492 153.83C153.835 153.409 154.349 153.165 154.892 153.165ZM171.161 153.165C172.349 153.165 173.312 154.128 173.312 155.315V167.008C173.312 168.03 172.482 168.859 171.46 168.859C170.438 168.859 169.609 168.03 169.609 167.008V161.963C169.609 160.998 168.401 160.564 167.787 161.309C167.307 161.891 166.591 162.229 165.836 162.229H165.688C164.933 162.229 164.217 161.892 163.735 161.31C163.118 160.563 161.904 160.999 161.903 161.968V167.008C161.903 168.03 161.075 168.859 160.053 168.859C159.03 168.859 158.201 168.03 158.201 167.008V155.315C158.201 154.128 159.164 153.165 160.352 153.165C160.953 153.165 161.526 153.417 161.934 153.859L164.469 156.613C165.162 157.366 166.351 157.366 167.044 156.613L169.579 153.859C169.986 153.417 170.56 153.165 171.161 153.165Z" fill="#120D0F" stroke="#B9CFD4" stroke-width="1.5"/>
</svg>
