<svg width="220" height="221" viewBox="0 0 220 221" fill="none" xmlns="http://www.w3.org/2000/svg">
<g filter="url(#filter0_ddd_2568_2273)">
<path d="M90 91H75C72.2386 91 70 88.7614 70 86V66C70 63.2386 67.7614 61 65 61H45C42.2386 61 40 63.2386 40 66V161C40 163.761 42.2386 166 45 166H65C67.7614 166 70 163.761 70 161L70 116C70 113.239 72.2386 111 75 111H90C92.7614 111 95 113.239 95 116L95 176C95 178.761 97.2386 181 100 181H120C122.761 181 125 178.761 125 176L125 56C125 53.2386 127.239 51 130 51H175C177.761 51 180 48.7614 180 46V26C180 23.2386 177.761 21 175 21L100 21C97.2386 21 95 23.2386 95 26V44.9258L95 86C95 88.7614 92.7614 91 90 91Z" fill="black" fill-opacity="0.12" shape-rendering="crispEdges"/>
<path d="M135 141V66C135 63.2386 137.239 61 140 61H160C162.761 61 165 63.2386 165 66V141C165 143.761 162.761 146 160 146H140C137.239 146 135 143.761 135 141Z" fill="black" fill-opacity="0.12" shape-rendering="crispEdges"/>
</g>
<path d="M90 91H75C72.2386 91 70 88.7614 70 86V66C70 63.2386 67.7614 61 65 61H45C42.2386 61 40 63.2386 40 66V161C40 163.761 42.2386 166 45 166H65C67.7614 166 70 163.761 70 161L70 116C70 113.239 72.2386 111 75 111H90C92.7614 111 95 113.239 95 116L95 176C95 178.761 97.2386 181 100 181H120C122.761 181 125 178.761 125 176L125 56C125 53.2386 127.239 51 130 51H175C177.761 51 180 48.7614 180 46V26C180 23.2386 177.761 21 175 21L100 21C97.2386 21 95 23.2386 95 26V44.9258L95 86C95 88.7614 92.7614 91 90 91Z" fill="black" fill-opacity="0.12"/>
<path d="M135 141V66C135 63.2386 137.239 61 140 61H160C162.761 61 165 63.2386 165 66V141C165 143.761 162.761 146 160 146H140C137.239 146 135 143.761 135 141Z" fill="black" fill-opacity="0.12"/>
<path d="M90 91H75C72.2386 91 70 88.7614 70 86V66C70 63.2386 67.7614 61 65 61H45C42.2386 61 40 63.2386 40 66V161C40 163.761 42.2386 166 45 166H65C67.7614 166 70 163.761 70 161L70 116C70 113.239 72.2386 111 75 111H90C92.7614 111 95 113.239 95 116L95 176C95 178.761 97.2386 181 100 181H120C122.761 181 125 178.761 125 176L125 56C125 53.2386 127.239 51 130 51H175C177.761 51 180 48.7614 180 46V26C180 23.2386 177.761 21 175 21L100 21C97.2386 21 95 23.2386 95 26V44.9258L95 86C95 88.7614 92.7614 91 90 91Z" stroke="#B9CFD4" stroke-width="2.5"/>
<path d="M135 141V66C135 63.2386 137.239 61 140 61H160C162.761 61 165 63.2386 165 66V141C165 143.761 162.761 146 160 146H140C137.239 146 135 143.761 135 141Z" stroke="#B9CFD4" stroke-width="2.5"/>
<path d="M97.5 96H67.5C66.1193 96 65 94.8807 65 93.5L65 68.5C65 67.1193 63.8807 66 62.5 66H47.5C46.1193 66 45 67.1193 45 68.5V158.5C45 159.881 46.1193 161 47.5 161H62.5C63.8807 161 65 159.881 65 158.5L65 108.5C65 107.119 66.1193 106 67.5 106H97.5C98.8807 106 100 107.119 100 108.5L100 173.5C100 174.881 101.119 176 102.5 176H117.5C118.881 176 120 174.881 120 173.5L120 47.4258C120 46.0451 121.119 44.9258 122.5 44.9258H172.5C173.881 44.9258 175 43.8065 175 42.4258V28.5C175 27.1193 173.881 26 172.5 26L102.5 26C101.119 26 100 27.1193 100 28.5V44.9258V93.5C100 94.8807 98.8807 96 97.5 96Z" fill="#120D0F"/>
<path d="M140 138.5L140 68.5C140 67.1193 141.119 66 142.5 66H157.5C158.881 66 160 67.1193 160 68.5L160 138.5C160 139.881 158.881 141 157.5 141H142.5C141.119 141 140 139.881 140 138.5Z" fill="#120D0F"/>
<defs>
<filter id="filter0_ddd_2568_2273" x="0" y="21" width="220" height="200" filterUnits="userSpaceOnUse" color-interpolation-filters="sRGB">
<feFlood flood-opacity="0" result="BackgroundImageFix"/>
<feColorMatrix in="SourceAlpha" type="matrix" values="0 0 0 0 0 0 0 0 0 0 0 0 0 0 0 0 0 0 127 0" result="hardAlpha"/>
<feOffset dy="20"/>
<feGaussianBlur stdDeviation="10"/>
<feComposite in2="hardAlpha" operator="out"/>
<feColorMatrix type="matrix" values="0 0 0 0 0 0 0 0 0 0 0 0 0 0 0 0 0 0 0.25 0"/>
<feBlend mode="normal" in2="BackgroundImageFix" result="effect1_dropShadow_2568_2273"/>
<feColorMatrix in="SourceAlpha" type="matrix" values="0 0 0 0 0 0 0 0 0 0 0 0 0 0 0 0 0 0 127 0" result="hardAlpha"/>
<feOffset dx="20" dy="20"/>
<feGaussianBlur stdDeviation="10"/>
<feComposite in2="hardAlpha" operator="out"/>
<feColorMatrix type="matrix" values="0 0 0 0 0 0 0 0 0 0 0 0 0 0 0 0 0 0 0.25 0"/>
<feBlend mode="normal" in2="effect1_dropShadow_2568_2273" result="effect2_dropShadow_2568_2273"/>
<feColorMatrix in="SourceAlpha" type="matrix" values="0 0 0 0 0 0 0 0 0 0 0 0 0 0 0 0 0 0 127 0" result="hardAlpha"/>
<feOffset dx="-20" dy="20"/>
<feGaussianBlur stdDeviation="10"/>
<feComposite in2="hardAlpha" operator="out"/>
<feColorMatrix type="matrix" values="0 0 0 0 0 0 0 0 0 0 0 0 0 0 0 0 0 0 0.25 0"/>
<feBlend mode="normal" in2="effect2_dropShadow_2568_2273" result="effect3_dropShadow_2568_2273"/>
<feBlend mode="normal" in="SourceGraphic" in2="effect3_dropShadow_2568_2273" result="shape"/>
</filter>
</defs>
</svg>
