<svg width="230" height="226" viewBox="0 0 230 226" fill="none" xmlns="http://www.w3.org/2000/svg">
<g filter="url(#filter0_ddd_2568_2316)">
<path d="M95 91H80C77.2386 91 75 88.7614 75 86V66C75 63.2386 72.7614 61 70 61H50C47.2386 61 45 63.2386 45 66V161C45 163.761 47.2386 166 50 166H70C72.7614 166 75 163.761 75 161L75 116C75 113.239 77.2386 111 80 111H95C97.7614 111 100 113.239 100 116L100 176C100 178.761 102.239 181 105 181H125C127.761 181 130 178.761 130 176L130 56C130 53.2386 132.239 51 135 51H180C182.761 51 185 48.7614 185 46V26C185 23.2386 182.761 21 180 21L105 21C102.239 21 100 23.2386 100 26V44.9258L100 86C100 88.7614 97.7614 91 95 91Z" fill="black" fill-opacity="0.12" shape-rendering="crispEdges"/>
<path d="M140 141V66C140 63.2386 142.239 61 145 61H165C167.761 61 170 63.2386 170 66V141C170 143.761 167.761 146 165 146H145C142.239 146 140 143.761 140 141Z" fill="black" fill-opacity="0.12" shape-rendering="crispEdges"/>
<path d="M180 18.5C184.142 18.5 187.5 21.8579 187.5 26V46C187.5 50.1421 184.142 53.5 180 53.5H135C133.619 53.5 132.5 54.6193 132.5 56V176C132.5 180.142 129.142 183.5 125 183.5H105C100.858 183.5 97.5 180.142 97.5 176V116L97.4873 115.744C97.3592 114.484 96.2943 113.5 95 113.5H80C78.6193 113.5 77.5 114.619 77.5 116V161C77.5 165.142 74.1421 168.5 70 168.5H50C45.8579 168.5 42.5 165.142 42.5 161V66C42.5 61.8579 45.8579 58.5 50 58.5H70C74.1421 58.5 77.5 61.8579 77.5 66V86C77.5 87.3807 78.6193 88.5 80 88.5H95C96.3807 88.5 97.5 87.3807 97.5 86V26C97.5 21.8579 100.858 18.5 105 18.5H180ZM165 58.5C169.142 58.5 172.5 61.8579 172.5 66V141C172.5 145.142 169.142 148.5 165 148.5H145C140.858 148.5 137.5 145.142 137.5 141V66C137.5 61.8579 140.858 58.5 145 58.5H165Z" stroke="#120D0F" stroke-width="5" shape-rendering="crispEdges"/>
</g>
<path d="M95 91H80C77.2386 91 75 88.7614 75 86V66C75 63.2386 72.7614 61 70 61H50C47.2386 61 45 63.2386 45 66V161C45 163.761 47.2386 166 50 166H70C72.7614 166 75 163.761 75 161L75 116C75 113.239 77.2386 111 80 111H95C97.7614 111 100 113.239 100 116L100 176C100 178.761 102.239 181 105 181H125C127.761 181 130 178.761 130 176L130 56C130 53.2386 132.239 51 135 51H180C182.761 51 185 48.7614 185 46V26C185 23.2386 182.761 21 180 21L105 21C102.239 21 100 23.2386 100 26V44.9258L100 86C100 88.7614 97.7614 91 95 91Z" fill="black" fill-opacity="0.12"/>
<path d="M140 141V66C140 63.2386 142.239 61 145 61H165C167.761 61 170 63.2386 170 66V141C170 143.761 167.761 146 165 146H145C142.239 146 140 143.761 140 141Z" fill="black" fill-opacity="0.12"/>
<path d="M95 91H80C77.2386 91 75 88.7614 75 86V66C75 63.2386 72.7614 61 70 61H50C47.2386 61 45 63.2386 45 66V161C45 163.761 47.2386 166 50 166H70C72.7614 166 75 163.761 75 161L75 116C75 113.239 77.2386 111 80 111H95C97.7614 111 100 113.239 100 116L100 176C100 178.761 102.239 181 105 181H125C127.761 181 130 178.761 130 176L130 56C130 53.2386 132.239 51 135 51H180C182.761 51 185 48.7614 185 46V26C185 23.2386 182.761 21 180 21L105 21C102.239 21 100 23.2386 100 26V44.9258L100 86C100 88.7614 97.7614 91 95 91Z" stroke="#B9CFD4" stroke-width="2.5"/>
<path d="M140 141V66C140 63.2386 142.239 61 145 61H165C167.761 61 170 63.2386 170 66V141C170 143.761 167.761 146 165 146H145C142.239 146 140 143.761 140 141Z" stroke="#B9CFD4" stroke-width="2.5"/>
<path d="M102.5 96H72.5C71.1193 96 70 94.8807 70 93.5L70 68.5C70 67.1193 68.8807 66 67.5 66H52.5C51.1193 66 50 67.1193 50 68.5V158.5C50 159.881 51.1193 161 52.5 161H67.5C68.8807 161 70 159.881 70 158.5L70 108.5C70 107.119 71.1193 106 72.5 106H102.5C103.881 106 105 107.119 105 108.5L105 173.5C105 174.881 106.119 176 107.5 176H122.5C123.881 176 125 174.881 125 173.5L125 47.4258C125 46.0451 126.119 44.9258 127.5 44.9258H177.5C178.881 44.9258 180 43.8065 180 42.4258V28.5C180 27.1193 178.881 26 177.5 26L107.5 26C106.119 26 105 27.1193 105 28.5V44.9258V93.5C105 94.8807 103.881 96 102.5 96Z" fill="#B9CFD4"/>
<path d="M145 138.5L145 68.5C145 67.1193 146.119 66 147.5 66H162.5C163.881 66 165 67.1193 165 68.5L165 138.5C165 139.881 163.881 141 162.5 141H147.5C146.119 141 145 139.881 145 138.5Z" fill="#B9CFD4"/>
<defs>
<filter id="filter0_ddd_2568_2316" x="0" y="16" width="230" height="210" filterUnits="userSpaceOnUse" color-interpolation-filters="sRGB">
<feFlood flood-opacity="0" result="BackgroundImageFix"/>
<feColorMatrix in="SourceAlpha" type="matrix" values="0 0 0 0 0 0 0 0 0 0 0 0 0 0 0 0 0 0 127 0" result="hardAlpha"/>
<feOffset dy="20"/>
<feGaussianBlur stdDeviation="10"/>
<feComposite in2="hardAlpha" operator="out"/>
<feColorMatrix type="matrix" values="0 0 0 0 0 0 0 0 0 0 0 0 0 0 0 0 0 0 0.25 0"/>
<feBlend mode="normal" in2="BackgroundImageFix" result="effect1_dropShadow_2568_2316"/>
<feColorMatrix in="SourceAlpha" type="matrix" values="0 0 0 0 0 0 0 0 0 0 0 0 0 0 0 0 0 0 127 0" result="hardAlpha"/>
<feOffset dx="20" dy="20"/>
<feGaussianBlur stdDeviation="10"/>
<feComposite in2="hardAlpha" operator="out"/>
<feColorMatrix type="matrix" values="0 0 0 0 0 0 0 0 0 0 0 0 0 0 0 0 0 0 0.25 0"/>
<feBlend mode="normal" in2="effect1_dropShadow_2568_2316" result="effect2_dropShadow_2568_2316"/>
<feColorMatrix in="SourceAlpha" type="matrix" values="0 0 0 0 0 0 0 0 0 0 0 0 0 0 0 0 0 0 127 0" result="hardAlpha"/>
<feOffset dx="-20" dy="20"/>
<feGaussianBlur stdDeviation="10"/>
<feComposite in2="hardAlpha" operator="out"/>
<feColorMatrix type="matrix" values="0 0 0 0 0 0 0 0 0 0 0 0 0 0 0 0 0 0 0.25 0"/>
<feBlend mode="normal" in2="effect2_dropShadow_2568_2316" result="effect3_dropShadow_2568_2316"/>
<feBlend mode="normal" in="SourceGraphic" in2="effect3_dropShadow_2568_2316" result="shape"/>
</filter>
</defs>
</svg>
