<svg width="267" height="222" viewBox="0 0 267 222" fill="none" xmlns="http://www.w3.org/2000/svg">
<path d="M186 17.875C220.173 17.875 247.875 45.5774 247.875 79.75V182.25C247.875 194.331 238.081 204.125 226 204.125H111C60.2588 204.125 19.125 162.991 19.125 112.25V39.75C19.125 27.6688 28.9188 17.875 41 17.875H186Z" stroke="#120D0F" stroke-width="3.75"/>
<path d="M41 21H186C218.447 21 244.75 47.3033 244.75 79.75V182.25C244.75 192.605 236.355 201 226 201H111C61.9847 201 22.25 161.265 22.25 112.25V39.75C22.25 29.5566 30.3841 21.2628 40.5156 21.0059L41 21Z" fill="black" fill-opacity="0.12"/>
<path d="M41 21H186C218.447 21 244.75 47.3033 244.75 79.75V182.25C244.75 192.605 236.355 201 226 201H111C61.9847 201 22.25 161.265 22.25 112.25V39.75C22.25 29.5566 30.3841 21.2628 40.5156 21.0059L41 21Z" stroke="#B9CFD4" stroke-width="2.5"/>
<path d="M42.25 28.5H184.75C213.745 28.5 237.25 52.0051 237.25 81V181C237.25 187.904 231.654 193.5 224.75 193.5H112.25C66.6865 193.5 29.75 156.563 29.75 111V41C29.75 34.0964 35.3464 28.5 42.25 28.5Z" fill="black" fill-opacity="0.12"/>
<path d="M42.25 28.5H184.75C213.745 28.5 237.25 52.0051 237.25 81V181C237.25 187.904 231.654 193.5 224.75 193.5H112.25C66.6865 193.5 29.75 156.563 29.75 111V41C29.75 34.0964 35.3464 28.5 42.25 28.5Z" stroke="#B9CFD4" stroke-width="5"/>
<path d="M212.624 53.3047C214.695 53.3047 216.374 54.9836 216.374 57.0547V66.249C216.374 68.3201 214.695 69.999 212.624 69.999H203.437C202.746 69.999 202.187 70.5587 202.187 71.249V165.609C202.187 167.68 200.508 169.359 198.437 169.359H189.249C187.178 169.359 185.499 167.68 185.499 165.609V71.249C185.499 70.5587 184.939 69.999 184.249 69.999H118.312C117.621 69.999 117.062 70.5587 117.062 71.249V165.609C117.062 167.68 115.383 169.359 113.312 169.359H104.124C102.053 169.359 100.374 167.68 100.374 165.609V118.563C100.374 117.873 99.8144 117.313 99.124 117.313H75.752C75.0616 117.313 74.502 117.873 74.502 118.563V151.415C74.5019 153.486 72.823 155.165 70.752 155.165H61.5615C59.4905 155.165 57.8115 153.486 57.8115 151.415V85.4434C57.8115 83.3723 59.4905 81.6934 61.5615 81.6934H70.752C72.823 81.6934 74.502 83.3723 74.502 85.4434V104.101C74.502 104.791 75.0616 105.351 75.752 105.351H99.124C99.8144 105.351 100.374 104.791 100.374 104.101V57.0547C100.374 54.9836 102.053 53.3047 104.124 53.3047H212.624ZM141.687 81.6934C143.758 81.6934 145.437 83.3723 145.437 85.4434V137.221C145.437 139.292 143.758 140.971 141.687 140.971H132.499C130.428 140.971 128.749 139.292 128.749 137.221V85.4434C128.749 83.3723 130.428 81.6934 132.499 81.6934H141.687ZM170.062 81.6934C172.133 81.6934 173.812 83.3723 173.812 85.4434V137.221C173.812 139.292 172.133 140.971 170.062 140.971H160.874C158.803 140.971 157.124 139.292 157.124 137.221V85.4434C157.124 83.3723 158.803 81.6934 160.874 81.6934H170.062Z" fill="#B9CFD4" stroke="#120D0F" stroke-width="2.5"/>
<path d="M140.353 153.415C141.234 153.415 141.948 154.13 141.948 155.012C141.948 155.893 141.234 156.607 140.353 156.607H134.425C133.991 156.607 133.626 156.726 133.312 156.959L133.181 157.066C132.849 157.361 132.701 157.691 132.701 158.081V163.943C132.701 164.332 132.847 164.665 133.178 164.966L133.309 165.071C133.622 165.301 133.989 165.417 134.425 165.417H137.9C138.407 165.417 138.811 165.263 139.144 164.968C139.476 164.666 139.623 164.333 139.623 163.943C139.623 163.147 138.977 162.501 138.181 162.501H137.19C136.309 162.501 135.595 161.786 135.595 160.904C135.595 160.023 136.309 159.308 137.19 159.308H139.825C141.482 159.308 142.825 160.651 142.825 162.308V163.933C142.825 164.79 142.602 165.582 142.154 166.297C141.712 167.004 141.113 167.565 140.367 167.98L140.368 167.981C139.621 168.402 138.795 168.609 137.9 168.609H134.425C133.53 168.609 132.704 168.402 131.956 167.981C131.218 167.566 130.621 167.004 130.172 166.3L130.17 166.297C129.722 165.582 129.499 164.79 129.499 163.933V158.092C129.499 157.229 129.722 156.436 130.172 155.726V155.725C130.621 155.02 131.218 154.458 131.956 154.043C132.704 153.622 133.53 153.415 134.425 153.415H140.353ZM154.892 153.415C156.189 153.415 156.914 154.911 156.112 155.93L152.396 160.648C152.119 161.001 151.968 161.437 151.968 161.886V166.982C151.968 167.881 151.239 168.609 150.341 168.609C149.442 168.609 148.714 167.881 148.714 166.982V161.889C148.714 161.438 148.561 161.001 148.281 160.647L144.551 155.937C143.743 154.917 144.47 153.415 145.771 153.415C146.237 153.415 146.679 153.624 146.975 153.985L148.788 156.202C149.59 157.182 151.088 157.18 151.887 156.198L153.687 153.987C153.982 153.625 154.424 153.415 154.892 153.415ZM171.161 153.415C172.211 153.415 173.062 154.266 173.062 155.315V167.008C173.062 167.892 172.344 168.609 171.46 168.609C170.576 168.609 169.859 167.892 169.859 167.008V161.963C169.859 160.764 168.358 160.224 167.595 161.149C167.162 161.674 166.516 161.979 165.836 161.979H165.688C165.007 161.979 164.362 161.674 163.928 161.149C163.161 160.222 161.654 160.764 161.653 161.968V167.008C161.653 167.892 160.937 168.609 160.053 168.609C159.168 168.609 158.451 167.892 158.451 167.008V155.315C158.451 154.266 159.302 153.415 160.352 153.415C160.883 153.415 161.39 153.638 161.75 154.028L164.285 156.782C165.077 157.643 166.435 157.643 167.228 156.782L169.764 154.028C170.123 153.638 170.63 153.415 171.161 153.415Z" fill="#B9CFD4" stroke="#120D0F"/>
</svg>
