<svg width="257" height="212" viewBox="0 0 257 212" fill="none" xmlns="http://www.w3.org/2000/svg">
<path d="M36 18.5H181C212.756 18.5 238.5 44.2436 238.5 76V176C238.5 185.665 230.665 193.5 221 193.5H106C57.6751 193.5 18.5 154.325 18.5 106V36C18.5 26.335 26.335 18.5 36 18.5Z" fill="black" fill-opacity="0.12"/>
<path d="M36 18.5H181C212.756 18.5 238.5 44.2436 238.5 76V176C238.5 185.665 230.665 193.5 221 193.5H106C57.6751 193.5 18.5 154.325 18.5 106V36C18.5 26.335 26.335 18.5 36 18.5Z" stroke="#B9CFD4" stroke-width="5"/>
<path d="M36 24.75H181C209.305 24.75 232.25 47.6954 232.25 76V176C232.25 182.213 227.213 187.25 221 187.25H106C61.1269 187.25 24.75 150.873 24.75 106V36C24.75 29.7868 29.7868 24.75 36 24.75Z" stroke="#120D0F" stroke-width="7.5"/>
<path d="M206.375 48.3047C208.446 48.3047 210.125 49.9836 210.125 52.0547V61.249C210.125 63.3201 208.446 64.999 206.375 64.999H197.188C196.497 64.999 195.938 65.5587 195.938 66.249V160.609C195.937 162.68 194.259 164.359 192.188 164.359H183C180.929 164.359 179.25 162.68 179.25 160.609V66.249C179.25 65.5587 178.69 64.999 178 64.999H112.062C111.372 64.999 110.813 65.5587 110.812 66.249V160.609C110.812 162.68 109.134 164.359 107.062 164.359H97.875C95.8039 164.359 94.125 162.68 94.125 160.609V113.563C94.125 112.873 93.5653 112.313 92.875 112.313H69.5029C68.8126 112.313 68.2529 112.873 68.2529 113.563V146.415C68.2529 148.486 66.5739 150.165 64.5029 150.165H55.3125C53.2414 150.165 51.5625 148.486 51.5625 146.415V80.4434C51.5625 78.3723 53.2414 76.6934 55.3125 76.6934H64.5029C66.5739 76.6934 68.2529 78.3723 68.2529 80.4434V99.1006C68.2529 99.7909 68.8126 100.351 69.5029 100.351H92.875C93.5653 100.351 94.125 99.7909 94.125 99.1006V52.0547C94.125 49.9836 95.8039 48.3047 97.875 48.3047H206.375ZM135.438 76.6934C137.509 76.6934 139.188 78.3723 139.188 80.4434V132.221C139.187 134.292 137.509 135.971 135.438 135.971H126.25C124.179 135.971 122.5 134.292 122.5 132.221V80.4434C122.5 78.3723 124.179 76.6934 126.25 76.6934H135.438ZM163.812 76.6934C165.884 76.6934 167.562 78.3723 167.562 80.4434V132.221C167.562 134.292 165.884 135.971 163.812 135.971H154.625C152.554 135.971 150.875 134.292 150.875 132.221V80.4434C150.875 78.3723 152.554 76.6934 154.625 76.6934H163.812Z" fill="#120D0F" stroke="#B9CFD4" stroke-width="2.5"/>
<path d="M134.104 148.165C135.123 148.165 135.949 148.992 135.949 150.012C135.949 151.031 135.123 151.857 134.104 151.857H128.176C127.738 151.857 127.392 151.991 127.098 152.253V152.254C126.815 152.504 126.702 152.767 126.702 153.081V158.943C126.702 159.256 126.814 159.523 127.097 159.78C127.39 160.035 127.736 160.167 128.176 160.167H131.651C132.099 160.167 132.441 160.034 132.724 159.785C133.01 159.526 133.124 159.258 133.124 158.943C133.124 158.285 132.59 157.751 131.932 157.751H130.941C129.922 157.751 129.096 156.924 129.096 155.904C129.096 154.885 129.922 154.058 130.941 154.058H133.576C135.371 154.058 136.826 155.513 136.826 157.308V158.933C136.826 159.835 136.59 160.674 136.117 161.43C135.651 162.174 135.021 162.766 134.239 163.201L134.238 163.2C133.452 163.642 132.585 163.859 131.651 163.859H128.176C127.241 163.859 126.371 163.642 125.584 163.199C124.811 162.764 124.183 162.174 123.712 161.435L123.709 161.43C123.236 160.674 123 159.835 123 158.933V153.092C123 152.183 123.235 151.343 123.711 150.592L123.712 150.59C124.183 149.85 124.811 149.26 125.584 148.825C126.371 148.382 127.241 148.165 128.176 148.165H134.104ZM148.643 148.165C150.148 148.165 150.991 149.902 150.06 151.085L146.344 155.803C146.101 156.111 145.969 156.493 145.969 156.886V161.982C145.969 163.019 145.128 163.859 144.092 163.859C143.055 163.859 142.215 163.019 142.215 161.982V156.889C142.215 156.495 142.082 156.112 141.837 155.803L138.105 151.092C137.168 149.908 138.012 148.165 139.521 148.165C140.063 148.165 140.576 148.408 140.919 148.827L142.732 151.044C143.434 151.901 144.745 151.899 145.444 151.04L147.243 148.83C147.586 148.409 148.1 148.165 148.643 148.165ZM164.912 148.165C166.1 148.165 167.062 149.128 167.062 150.315V162.008C167.062 163.03 166.233 163.859 165.211 163.859C164.189 163.859 163.36 163.03 163.36 162.008V156.963C163.36 155.998 162.152 155.564 161.538 156.309C161.058 156.891 160.342 157.229 159.587 157.229H159.439C158.684 157.229 157.968 156.892 157.486 156.31C156.869 155.563 155.655 155.999 155.654 156.968V162.008C155.654 163.03 154.826 163.859 153.804 163.859C152.781 163.859 151.952 163.03 151.952 162.008V150.315C151.952 149.128 152.915 148.165 154.103 148.165C154.704 148.165 155.277 148.417 155.685 148.859L158.22 151.613C158.913 152.366 160.102 152.366 160.795 151.613L163.33 148.859C163.737 148.417 164.311 148.165 164.912 148.165Z" fill="#120D0F" stroke="#B9CFD4" stroke-width="1.5"/>
</svg>
