<svg width="267" height="222" viewBox="0 0 267 222" fill="none" xmlns="http://www.w3.org/2000/svg">
<path d="M186 17.875C220.173 17.875 247.875 45.5774 247.875 79.75V182.25C247.875 194.331 238.081 204.125 226 204.125H111C60.2588 204.125 19.125 162.991 19.125 112.25V39.75C19.125 27.6688 28.9188 17.875 41 17.875H186Z" stroke="#120D0F" stroke-width="3.75"/>
<path d="M41 21H186C218.447 21 244.75 47.3033 244.75 79.75V182.25C244.75 192.605 236.355 201 226 201H111C61.9847 201 22.25 161.265 22.25 112.25V39.75C22.25 29.5566 30.3841 21.2628 40.5156 21.0059L41 21Z" stroke="#B9CFD4" stroke-width="2.5"/>
<path d="M42.25 28.5H184.75C213.745 28.5 237.25 52.0051 237.25 81V181C237.25 187.904 231.654 193.5 224.75 193.5H112.25C66.6865 193.5 29.75 156.563 29.75 111V41C29.75 34.0964 35.3464 28.5 42.25 28.5Z" fill="#120D0F"/>
<path d="M42.25 28.5H184.75C213.745 28.5 237.25 52.0051 237.25 81V181C237.25 187.904 231.654 193.5 224.75 193.5H112.25C66.6865 193.5 29.75 156.563 29.75 111V41C29.75 34.0964 35.3464 28.5 42.25 28.5Z" stroke="#FBA002" stroke-width="5"/>
<path d="M212.624 53.3047C214.695 53.3047 216.374 54.9836 216.374 57.0547V66.249C216.374 68.3201 214.695 69.999 212.624 69.999H203.437C202.746 69.999 202.187 70.5587 202.187 71.249V165.609C202.187 167.68 200.508 169.359 198.437 169.359H189.249C187.178 169.359 185.499 167.68 185.499 165.609V71.249C185.499 70.5587 184.939 69.999 184.249 69.999H118.312C117.621 69.999 117.062 70.5587 117.062 71.249V165.609C117.062 167.68 115.383 169.359 113.312 169.359H104.124C102.053 169.359 100.374 167.68 100.374 165.609V118.563C100.374 117.873 99.8144 117.313 99.124 117.313H75.752C75.0616 117.313 74.502 117.873 74.502 118.563V151.415C74.5019 153.486 72.823 155.165 70.752 155.165H61.5615C59.4905 155.165 57.8115 153.486 57.8115 151.415V85.4434C57.8115 83.3723 59.4905 81.6934 61.5615 81.6934H70.752C72.823 81.6934 74.502 83.3723 74.502 85.4434V104.101C74.502 104.791 75.0616 105.351 75.752 105.351H99.124C99.8144 105.351 100.374 104.791 100.374 104.101V57.0547C100.374 54.9836 102.053 53.3047 104.124 53.3047H212.624ZM141.687 81.6934C143.758 81.6934 145.437 83.3723 145.437 85.4434V137.221C145.437 139.292 143.758 140.971 141.687 140.971H132.499C130.428 140.971 128.749 139.292 128.749 137.221V85.4434C128.749 83.3723 130.428 81.6934 132.499 81.6934H141.687ZM170.062 81.6934C172.133 81.6934 173.812 83.3723 173.812 85.4434V137.221C173.812 139.292 172.133 140.971 170.062 140.971H160.874C158.803 140.971 157.124 139.292 157.124 137.221V85.4434C157.124 83.3723 158.803 81.6934 160.874 81.6934H170.062Z" fill="#B9CFD4" stroke="#120D0F" stroke-width="2.5"/>
<path d="M140.353 152.665C141.648 152.665 142.698 153.716 142.698 155.012C142.698 156.307 141.648 157.357 140.353 157.357H134.425C134.104 157.357 133.878 157.45 133.679 157.627L133.678 157.628C133.495 157.79 133.451 157.92 133.451 158.081V163.943C133.451 164.103 133.496 164.238 133.679 164.406C133.875 164.575 134.102 164.667 134.425 164.667H137.9C138.234 164.667 138.456 164.573 138.64 164.412C138.828 164.242 138.873 164.105 138.873 163.943C138.873 163.561 138.563 163.251 138.181 163.251H137.19C135.976 163.251 134.977 162.327 134.856 161.145L134.845 160.904L134.856 160.664C134.977 159.481 135.976 158.558 137.19 158.558H139.825C141.896 158.558 143.575 160.237 143.575 162.308V163.933C143.575 164.927 143.314 165.857 142.79 166.694C142.278 167.513 141.584 168.163 140.731 168.638L140.73 168.637C139.865 169.123 138.913 169.359 137.9 169.359H134.425C133.41 169.359 132.455 169.123 131.588 168.635C130.745 168.16 130.056 167.513 129.54 166.703L129.534 166.694C129.01 165.857 128.749 164.927 128.749 163.933V158.092C128.749 157.093 129.009 156.159 129.538 155.324L129.54 155.321C130.056 154.511 130.745 153.864 131.588 153.39C132.455 152.902 133.41 152.665 134.425 152.665H140.353ZM155.069 152.672C156.88 152.803 157.854 154.93 156.701 156.394L152.986 161.112C152.813 161.333 152.718 161.605 152.718 161.886V166.982C152.718 168.295 151.654 169.359 150.341 169.359C149.028 169.359 147.964 168.295 147.964 166.982V161.889C147.964 161.607 147.868 161.334 147.693 161.113L143.963 156.401C142.766 154.89 143.843 152.665 145.771 152.665L146.027 152.68C146.537 152.737 147.014 152.962 147.381 153.32L147.555 153.511L149.368 155.728C149.869 156.34 150.806 156.338 151.306 155.725L153.104 153.515C153.542 152.977 154.199 152.665 154.892 152.665L155.069 152.672ZM171.161 152.665C172.625 152.665 173.812 153.852 173.812 155.315V167.008C173.812 168.306 172.758 169.359 171.46 169.359C170.162 169.359 169.109 168.306 169.109 167.008V161.963C169.109 161.467 168.488 161.244 168.173 161.627C167.598 162.325 166.74 162.729 165.836 162.729H165.688C164.784 162.729 163.926 162.325 163.35 161.628C163.031 161.242 162.404 161.467 162.403 161.968V167.008C162.403 168.306 161.351 169.359 160.053 169.359C158.754 169.359 157.701 168.306 157.701 167.008V155.315C157.701 153.852 158.888 152.665 160.352 152.665C161.092 152.665 161.8 152.975 162.302 153.521L164.837 156.274C165.332 156.812 166.181 156.812 166.676 156.274L169.212 153.521C169.714 152.976 170.42 152.665 171.161 152.665Z" fill="#FBA002" stroke="#120D0F" stroke-width="2.5"/>
</svg>
