<svg width="257" height="212" viewBox="0 0 257 212" fill="none" xmlns="http://www.w3.org/2000/svg">
<path d="M36 18.5H181C212.756 18.5 238.5 44.2436 238.5 76V176C238.5 185.665 230.665 193.5 221 193.5H106C57.6751 193.5 18.5 154.325 18.5 106V36C18.5 26.335 26.335 18.5 36 18.5Z" fill="#120D0F"/>
<path d="M36 18.5H181C212.756 18.5 238.5 44.2436 238.5 76V176C238.5 185.665 230.665 193.5 221 193.5H106C57.6751 193.5 18.5 154.325 18.5 106V36C18.5 26.335 26.335 18.5 36 18.5Z" stroke="#120D0F" stroke-width="5"/>
<path d="M36 24.75H181C209.305 24.75 232.25 47.6954 232.25 76V176C232.25 182.213 227.213 187.25 221 187.25H106C61.1269 187.25 24.75 150.873 24.75 106V36C24.75 29.7868 29.7868 24.75 36 24.75Z" stroke="#FBA002" stroke-width="7.5"/>
<path d="M206.375 48.3047C208.446 48.3047 210.125 49.9836 210.125 52.0547V61.249C210.125 63.3201 208.446 64.999 206.375 64.999H197.188C196.497 64.999 195.938 65.5587 195.938 66.249V160.609C195.937 162.68 194.259 164.359 192.188 164.359H183C180.929 164.359 179.25 162.68 179.25 160.609V66.249C179.25 65.5587 178.69 64.999 178 64.999H112.062C111.372 64.999 110.813 65.5587 110.812 66.249V160.609C110.812 162.68 109.134 164.359 107.062 164.359H97.875C95.8039 164.359 94.125 162.68 94.125 160.609V113.563C94.125 112.873 93.5653 112.313 92.875 112.313H69.5029C68.8126 112.313 68.2529 112.873 68.2529 113.563V146.415C68.2529 148.486 66.5739 150.165 64.5029 150.165H55.3125C53.2414 150.165 51.5625 148.486 51.5625 146.415V80.4434C51.5625 78.3723 53.2414 76.6934 55.3125 76.6934H64.5029C66.5739 76.6934 68.2529 78.3723 68.2529 80.4434V99.1006C68.2529 99.7909 68.8126 100.351 69.5029 100.351H92.875C93.5653 100.351 94.125 99.7909 94.125 99.1006V52.0547C94.125 49.9836 95.8039 48.3047 97.875 48.3047H206.375ZM135.438 76.6934C137.509 76.6934 139.188 78.3723 139.188 80.4434V132.221C139.187 134.292 137.509 135.971 135.438 135.971H126.25C124.179 135.971 122.5 134.292 122.5 132.221V80.4434C122.5 78.3723 124.179 76.6934 126.25 76.6934H135.438ZM163.812 76.6934C165.884 76.6934 167.562 78.3723 167.562 80.4434V132.221C167.562 134.292 165.884 135.971 163.812 135.971H154.625C152.554 135.971 150.875 134.292 150.875 132.221V80.4434C150.875 78.3723 152.554 76.6934 154.625 76.6934H163.812Z" fill="#B9CFD4" stroke="#120D0F" stroke-width="2.5"/>
<path d="M134.104 147.665C135.399 147.665 136.449 148.716 136.449 150.012C136.449 151.307 135.399 152.357 134.104 152.357H128.176C127.855 152.357 127.628 152.45 127.43 152.627L127.429 152.628C127.246 152.79 127.202 152.92 127.202 153.081V158.943C127.202 159.103 127.247 159.238 127.43 159.406C127.626 159.575 127.853 159.667 128.176 159.667H131.651C131.985 159.667 132.207 159.573 132.391 159.412C132.579 159.242 132.624 159.105 132.624 158.943C132.624 158.561 132.314 158.251 131.932 158.251H130.941C129.727 158.251 128.728 157.327 128.607 156.145L128.596 155.904L128.607 155.664C128.728 154.481 129.727 153.558 130.941 153.558H133.576C135.647 153.558 137.326 155.237 137.326 157.308V158.933C137.326 159.927 137.065 160.857 136.541 161.694C136.029 162.513 135.335 163.163 134.482 163.638L134.481 163.637C133.616 164.123 132.664 164.359 131.651 164.359H128.176C127.161 164.359 126.206 164.123 125.339 163.635C124.496 163.16 123.807 162.513 123.291 161.703L123.285 161.694C122.761 160.857 122.5 159.927 122.5 158.933V153.092C122.5 152.093 122.76 151.159 123.289 150.324L123.291 150.321C123.807 149.511 124.496 148.864 125.339 148.39C126.206 147.902 127.161 147.665 128.176 147.665H134.104ZM148.82 147.672C150.631 147.803 151.605 149.93 150.452 151.394L146.737 156.112C146.564 156.333 146.469 156.605 146.469 156.886V161.982C146.469 163.295 145.405 164.359 144.092 164.359C142.779 164.359 141.715 163.295 141.715 161.982V156.889C141.715 156.607 141.619 156.334 141.444 156.113L137.714 151.401C136.517 149.89 137.594 147.665 139.521 147.665L139.778 147.68C140.288 147.737 140.765 147.962 141.132 148.32L141.306 148.511L143.119 150.728C143.62 151.34 144.557 151.338 145.057 150.725L146.855 148.515C147.293 147.977 147.95 147.665 148.643 147.665L148.82 147.672ZM164.912 147.665C166.376 147.665 167.562 148.852 167.562 150.315V162.008C167.562 163.306 166.509 164.359 165.211 164.359C163.913 164.359 162.86 163.306 162.86 162.008V156.963C162.86 156.467 162.239 156.244 161.924 156.627C161.349 157.325 160.491 157.729 159.587 157.729H159.439C158.535 157.729 157.677 157.325 157.101 156.628C156.782 156.242 156.155 156.467 156.154 156.968V162.008C156.154 163.306 155.102 164.359 153.804 164.359C152.505 164.359 151.452 163.306 151.452 162.008V150.315C151.452 148.852 152.639 147.665 154.103 147.665C154.843 147.665 155.551 147.975 156.053 148.521L158.588 151.274C159.083 151.812 159.932 151.812 160.427 151.274L162.963 148.521C163.465 147.975 164.171 147.665 164.912 147.665Z" fill="#FBA002" stroke="#120D0F" stroke-width="2.5"/>
</svg>
