<svg width="160" height="180" viewBox="0 0 160 180" fill="none" xmlns="http://www.w3.org/2000/svg">
<path d="M135 55V130C135 132.761 132.761 135 130 135H110C107.239 135 105 132.761 105 130" stroke="#120D0F" stroke-width="2.5"/>
<path d="M40 55L40 75C40 77.7614 42.2386 80 45 80" stroke="#120D0F" stroke-width="2.5"/>
<path d="M150 15V35C150 37.7614 147.761 40 145 40H100C97.2386 40 95 42.2386 95 45L95 165C95 167.761 92.7614 170 90 170H70C67.2386 170 65 167.761 65 165" stroke="#120D0F" stroke-width="2.5"/>
<path d="M65 100H45C42.2386 100 40 102.239 40 105L40 150C40 152.761 37.7614 155 35 155H15C12.2386 155 10 152.761 10 150V147.5" stroke="#120D0F" stroke-width="2.5"/>
<path d="M60 80H45C42.2386 80 40 77.7614 40 75V55C40 52.2386 37.7614 50 35 50H15C12.2386 50 10 52.2386 10 55V150C10 152.761 12.2386 155 15 155H35C37.7614 155 40 152.761 40 150L40 105C40 102.239 42.2386 100 45 100H60C62.7614 100 65 102.239 65 105L65 165C65 167.761 67.2386 170 70 170H90C92.7614 170 95 167.761 95 165L95 45C95 42.2386 97.2386 40 100 40H145C147.761 40 150 37.7614 150 35V15C150 12.2386 147.761 10 145 10L70 10C67.2386 10 65 12.2386 65 15V33.9258L65 75C65 77.7614 62.7614 80 60 80Z" fill="black" fill-opacity="0.12"/>
<path d="M105 130V55C105 52.2386 107.239 50 110 50H130C132.761 50 135 52.2386 135 55V130C135 132.761 132.761 135 130 135H110C107.239 135 105 132.761 105 130Z" fill="black" fill-opacity="0.12"/>
</svg>
