<svg width="3210" height="3231" viewBox="0 0 3210 3231" fill="none" xmlns="http://www.w3.org/2000/svg" xmlns:xlink="http://www.w3.org/1999/xlink">
<rect width="3210" height="3231" fill="#120D0F"/>
<rect width="3210" height="3231" fill="url(#pattern0_2592_1855)" fill-opacity="0.5"/>
<defs>
<pattern id="pattern0_2592_1855" patternUnits="userSpaceOnUse" patternTransform="matrix(106.667 0 0 256 -12.5566 0)" preserveAspectRatio="none" viewBox="-12.5566 0 106.667 256" width="1" height="1">
<use xlink:href="#pattern0_2592_1855_inner" transform="translate(-106.667 0)"/>
<g id="pattern0_2592_1855_inner">
<path d="M19.8891 28.2219H14.5558C13.5739 28.2219 12.778 27.426 12.778 26.4441V19.333C12.778 18.3512 11.9821 17.5552 11.0002 17.5552H3.88911C2.90727 17.5552 2.11133 18.3512 2.11133 19.333V53.1108C2.11133 54.0926 2.90727 54.8886 3.88911 54.8886H11.0002C11.9821 54.8886 12.778 54.0926 12.778 53.1108L12.778 37.1108C12.778 36.1289 13.5739 35.333 14.5558 35.333H19.8891C20.871 35.333 21.6669 36.1289 21.6669 37.1108L21.6669 58.4441C21.6669 59.426 22.4628 60.2219 23.4447 60.2219H30.5558C31.5376 60.2219 32.3336 59.426 32.3336 58.4441L32.3336 15.7775C32.3336 14.7956 33.1295 13.9997 34.1113 13.9997H50.1113C51.0932 13.9997 51.8891 13.2037 51.8891 12.2219V5.1108C51.8891 4.12896 51.0932 3.33302 50.1113 3.33302L23.4447 3.33301C22.4628 3.33301 21.6669 4.12895 21.6669 5.11079V11.84L21.6669 26.4441C21.6669 27.426 20.8709 28.2219 19.8891 28.2219Z" fill="#120D0F"/>
<path d="M35.8891 45.9997V19.333C35.8891 18.3512 36.685 17.5552 37.6669 17.5552H44.778C45.7598 17.5552 46.5558 18.3512 46.5558 19.333V45.9997C46.5558 46.9815 45.7598 47.7775 44.778 47.7775H37.6669C36.685 47.7775 35.8891 46.9815 35.8891 45.9997Z" fill="#120D0F"/>
<path d="M19.8891 28.2219H14.5558C13.5739 28.2219 12.778 27.426 12.778 26.4441V19.333C12.778 18.3512 11.9821 17.5552 11.0002 17.5552H3.88911C2.90727 17.5552 2.11133 18.3512 2.11133 19.333V53.1108C2.11133 54.0926 2.90727 54.8886 3.88911 54.8886H11.0002C11.9821 54.8886 12.778 54.0926 12.778 53.1108L12.778 37.1108C12.778 36.1289 13.5739 35.333 14.5558 35.333H19.8891C20.871 35.333 21.6669 36.1289 21.6669 37.1108L21.6669 58.4441C21.6669 59.426 22.4628 60.2219 23.4447 60.2219H30.5558C31.5376 60.2219 32.3336 59.426 32.3336 58.4441L32.3336 15.7775C32.3336 14.7956 33.1295 13.9997 34.1113 13.9997H50.1113C51.0932 13.9997 51.8891 13.2037 51.8891 12.2219V5.1108C51.8891 4.12896 51.0932 3.33302 50.1113 3.33302L23.4447 3.33301C22.4628 3.33301 21.6669 4.12895 21.6669 5.11079V11.84L21.6669 26.4441C21.6669 27.426 20.8709 28.2219 19.8891 28.2219Z" stroke="#B9CFD4" stroke-width="0.888889"/>
<path d="M35.8891 45.9997V19.333C35.8891 18.3512 36.685 17.5552 37.6669 17.5552H44.778C45.7598 17.5552 46.5558 18.3512 46.5558 19.333V45.9997C46.5558 46.9815 45.7598 47.7775 44.778 47.7775H37.6669C36.685 47.7775 35.8891 46.9815 35.8891 45.9997Z" stroke="#B9CFD4" stroke-width="0.888889"/>
<path d="M22.5553 29.9992H11.8887C11.3978 29.9992 10.9998 29.6013 10.9998 29.1104L10.9998 20.2215C10.9998 19.7305 10.6018 19.3326 10.1109 19.3326H4.77756C4.28664 19.3326 3.88867 19.7305 3.88867 20.2215V52.2215C3.88867 52.7124 4.28664 53.1104 4.77756 53.1104H10.1109C10.6018 53.1104 10.9998 52.7124 10.9998 52.2215L10.9998 34.4437C10.9998 33.9528 11.3978 33.5548 11.8887 33.5548H22.5553C23.0463 33.5548 23.4442 33.9528 23.4442 34.4437L23.4442 57.5548C23.4442 58.0457 23.8422 58.4437 24.3331 58.4437H29.6664C30.1574 58.4437 30.5553 58.0457 30.5553 57.5548L30.5553 12.7284C30.5553 12.2375 30.9533 11.8395 31.4442 11.8395H49.222C49.7129 11.8395 50.1109 11.4416 50.1109 10.9506V5.99925C50.1109 5.50833 49.7129 5.11036 49.222 5.11036L24.3331 5.11035C23.8422 5.11035 23.4442 5.50832 23.4442 5.99924V11.8395V29.1104C23.4442 29.6013 23.0463 29.9992 22.5553 29.9992Z" fill="#FBA002"/>
<path d="M37.6665 45.1104L37.6665 20.2215C37.6665 19.7305 38.0644 19.3326 38.5553 19.3326H43.8887C44.3796 19.3326 44.7776 19.7305 44.7776 20.2215L44.7776 45.1104C44.7776 45.6013 44.3796 45.9992 43.8887 45.9992H38.5553C38.0644 45.9992 37.6665 45.6013 37.6665 45.1104Z" fill="#FBA002"/>
</g>
<use xlink:href="#pattern0_2592_1855_inner" transform="translate(-53.3333 128)"/>
<use xlink:href="#pattern0_2592_1855_inner" transform="translate(53.3333 128)"/>
</pattern></defs>
</svg>
