<svg width="200" height="129" viewBox="0 0 200 129" fill="none" xmlns="http://www.w3.org/2000/svg">
<path d="M166 3C180.912 3 193 15.0883 193 30V125H40C19.5655 125 3 108.435 3 88V3H166Z" fill="#22181C"/>
<path d="M166 3C180.912 3 193 15.0883 193 30V125H40C19.5655 125 3 108.435 3 88V3H166Z" stroke="#22181C" stroke-width="6"/>
<path d="M166 7C178.703 7 189 17.2975 189 30V121H40C21.7746 121 7 106.225 7 88V7H166Z" stroke="#F6BD60" stroke-width="6"/>
<path d="M144.766 62.8438V110.844H132.766V62.8438H144.766Z" fill="#B9CFD4" stroke="#22181C" stroke-width="3"/>
<path d="M108.766 62.8438V110.844H96.7656V62.8438H108.766Z" fill="#B9CFD4" stroke="#22181C" stroke-width="3"/>
<path d="M198 18.8438V29.8125H176.156V110.531H165.188V29.8125H77.625V110.531H66.6562V70.2188L26.1006 81.2812V123.225L15.7656 126.343V34.6582L26.1006 31.4541V70.2188L66.6562 59.1562V18.8438H198Z" fill="#B9CFD4"/>
<path d="M198 18.8438H199.5V17.3438H198V18.8438ZM198 29.8125V31.3125H199.5V29.8125H198ZM176.156 29.8125V28.3125H174.656V29.8125H176.156ZM176.156 110.531V112.031H177.656V110.531H176.156ZM165.188 110.531H163.688V112.031H165.188V110.531ZM165.188 29.8125H166.688V28.3125H165.188V29.8125ZM77.625 29.8125V28.3125H76.125V29.8125H77.625ZM77.625 110.531V112.031H79.125V110.531H77.625ZM66.6562 110.531H65.1562V112.031H66.6562V110.531ZM66.6562 70.2188H68.1562V68.2548L66.2615 68.7716L66.6562 70.2188ZM26.1006 81.2812L25.7058 79.8341L24.6006 80.1356V81.2812H26.1006ZM26.1006 123.225L26.5339 124.661L27.6006 124.339V123.225H26.1006ZM15.7656 126.343H14.2656V128.362L16.1989 127.779L15.7656 126.343ZM15.7656 34.6582L15.3214 33.2255L14.2656 33.5528V34.6582H15.7656ZM26.1006 31.4541H27.6006V29.4186L25.6564 30.0214L26.1006 31.4541ZM26.1006 70.2188H24.6006V72.1827L26.4953 71.6659L26.1006 70.2188ZM66.6562 59.1562L67.051 60.6034L68.1562 60.3019V59.1562H66.6562ZM66.6562 18.8438V17.3438H65.1562V18.8438H66.6562ZM198 18.8438H196.5V29.8125H198H199.5V18.8438H198ZM198 29.8125V28.3125H176.156V29.8125V31.3125H198V29.8125ZM176.156 29.8125H174.656V110.531H176.156H177.656V29.8125H176.156ZM176.156 110.531V109.031H165.188V110.531V112.031H176.156V110.531ZM165.188 110.531H166.688V29.8125H165.188H163.688V110.531H165.188ZM165.188 29.8125V28.3125H77.625V29.8125V31.3125H165.188V29.8125ZM77.625 29.8125H76.125V110.531H77.625H79.125V29.8125H77.625ZM77.625 110.531V109.031H66.6562V110.531V112.031H77.625V110.531ZM66.6562 110.531H68.1562V70.2188H66.6562H65.1562V110.531H66.6562ZM66.6562 70.2188L66.2615 68.7716L25.7058 79.8341L26.1006 81.2812L26.4953 82.7284L67.051 71.6659L66.6562 70.2188ZM26.1006 81.2812H24.6006V123.225H26.1006H27.6006V81.2812H26.1006ZM26.1006 123.225L25.6673 121.789L15.3324 124.907L15.7656 126.343L16.1989 127.779L26.5339 124.661L26.1006 123.225ZM15.7656 126.343H17.2656V34.6582H15.7656H14.2656V126.343H15.7656ZM15.7656 34.6582L16.2098 36.0909L26.5448 32.8868L26.1006 31.4541L25.6564 30.0214L15.3214 33.2255L15.7656 34.6582ZM26.1006 31.4541H24.6006V70.2188H26.1006H27.6006V31.4541H26.1006ZM26.1006 70.2188L26.4953 71.6659L67.051 60.6034L66.6562 59.1562L66.2615 57.7091L25.7058 68.7716L26.1006 70.2188ZM66.6562 59.1562H68.1562V18.8438H66.6562H65.1562V59.1562H66.6562ZM66.6562 18.8438V20.3438H198V18.8438V17.3438H66.6562V18.8438Z" fill="#22181C"/>
<mask id="path-7-outside-1_1525_936" maskUnits="userSpaceOnUse" x="93.7656" y="35.8438" width="54" height="21" fill="black">
<rect fill="white" x="93.7656" y="35.8438" width="54" height="21"/>
<path d="M107.564 42.896C107.377 42.3246 107.131 41.8126 106.826 41.3601C106.526 40.9019 106.167 40.5115 105.748 40.1891C105.335 39.8666 104.866 39.6205 104.34 39.4508C103.813 39.2811 103.236 39.1962 102.608 39.1962C101.579 39.1962 100.643 39.4621 99.7998 39.9939C98.9568 40.5257 98.2865 41.3092 97.7887 42.3444C97.2908 43.3797 97.0419 44.6497 97.0419 46.1545C97.0419 47.6592 97.2937 48.9293 97.7971 49.9645C98.3006 50.9998 98.9823 51.7833 99.8422 52.315C100.702 52.8468 101.669 53.1127 102.744 53.1127C103.74 53.1127 104.617 52.9005 105.375 52.4763C106.139 52.0463 106.733 51.441 107.157 50.6603C107.587 49.874 107.802 48.9491 107.802 47.8855L108.447 48.0213H103.219V46.1545H109.838V48.0213C109.838 49.4525 109.533 50.6971 108.922 51.755C108.316 52.8129 107.479 53.6331 106.41 54.2158C105.347 54.7928 104.125 55.0813 102.744 55.0813C101.206 55.0813 99.8535 54.7193 98.6881 53.9952C97.5284 53.2711 96.6233 52.2415 95.9727 50.9064C95.3278 49.5713 95.0054 47.9874 95.0054 46.1545C95.0054 44.7798 95.1892 43.5437 95.5569 42.4462C95.9303 41.3431 96.4564 40.404 97.1353 39.629C97.8141 38.854 98.6174 38.26 99.5452 37.847C100.473 37.4341 101.494 37.2276 102.608 37.2276C103.525 37.2276 104.379 37.3662 105.171 37.6434C105.969 37.9149 106.679 38.3024 107.301 38.8059C107.929 39.3037 108.452 39.9006 108.871 40.5964C109.29 41.2865 109.578 42.0531 109.736 42.896H107.564ZM111.412 37.4652H113.822L118.642 45.5774H118.846L123.666 37.4652H126.076L119.796 47.6819V54.8438H117.692V47.6819L111.412 37.4652ZM128.797 37.4652H131.309L137.215 51.8908H137.419L143.325 37.4652H145.836V54.8438H143.868V41.6401H143.698L138.267 54.8438H136.366L130.936 41.6401H130.766V54.8438H128.797V37.4652Z"/>
</mask>
<path d="M107.564 42.896C107.377 42.3246 107.131 41.8126 106.826 41.3601C106.526 40.9019 106.167 40.5115 105.748 40.1891C105.335 39.8666 104.866 39.6205 104.34 39.4508C103.813 39.2811 103.236 39.1962 102.608 39.1962C101.579 39.1962 100.643 39.4621 99.7998 39.9939C98.9568 40.5257 98.2865 41.3092 97.7887 42.3444C97.2908 43.3797 97.0419 44.6497 97.0419 46.1545C97.0419 47.6592 97.2937 48.9293 97.7971 49.9645C98.3006 50.9998 98.9823 51.7833 99.8422 52.315C100.702 52.8468 101.669 53.1127 102.744 53.1127C103.74 53.1127 104.617 52.9005 105.375 52.4763C106.139 52.0463 106.733 51.441 107.157 50.6603C107.587 49.874 107.802 48.9491 107.802 47.8855L108.447 48.0213H103.219V46.1545H109.838V48.0213C109.838 49.4525 109.533 50.6971 108.922 51.755C108.316 52.8129 107.479 53.6331 106.41 54.2158C105.347 54.7928 104.125 55.0813 102.744 55.0813C101.206 55.0813 99.8535 54.7193 98.6881 53.9952C97.5284 53.2711 96.6233 52.2415 95.9727 50.9064C95.3278 49.5713 95.0054 47.9874 95.0054 46.1545C95.0054 44.7798 95.1892 43.5437 95.5569 42.4462C95.9303 41.3431 96.4564 40.404 97.1353 39.629C97.8141 38.854 98.6174 38.26 99.5452 37.847C100.473 37.4341 101.494 37.2276 102.608 37.2276C103.525 37.2276 104.379 37.3662 105.171 37.6434C105.969 37.9149 106.679 38.3024 107.301 38.8059C107.929 39.3037 108.452 39.9006 108.871 40.5964C109.29 41.2865 109.578 42.0531 109.736 42.896H107.564ZM111.412 37.4652H113.822L118.642 45.5774H118.846L123.666 37.4652H126.076L119.796 47.6819V54.8438H117.692V47.6819L111.412 37.4652ZM128.797 37.4652H131.309L137.215 51.8908H137.419L143.325 37.4652H145.836V54.8438H143.868V41.6401H143.698L138.267 54.8438H136.366L130.936 41.6401H130.766V54.8438H128.797V37.4652Z" fill="#FFFAFA"/>
<path d="M107.564 42.896L106.614 43.2066L106.839 43.896H107.564V42.896ZM106.826 41.3601L105.989 41.9076L105.993 41.9136L105.997 41.9196L106.826 41.3601ZM105.748 40.1891L105.133 40.9773L105.138 40.9813L105.748 40.1891ZM104.34 39.4508L104.647 38.4991L104.647 38.4991L104.34 39.4508ZM97.7887 42.3444L98.6899 42.7778L98.6899 42.7778L97.7887 42.3444ZM97.7971 49.9645L96.8979 50.4019L96.8979 50.4019L97.7971 49.9645ZM99.8422 52.315L99.3162 53.1655L99.8422 52.315ZM105.375 52.4763L105.863 53.3489L105.865 53.3477L105.375 52.4763ZM107.157 50.6603L106.279 50.1806L106.278 50.1828L107.157 50.6603ZM107.802 47.8855L108.008 46.907L106.802 46.6531V47.8855H107.802ZM108.447 48.0213V49.0213L108.653 47.0428L108.447 48.0213ZM103.219 48.0213H102.219V49.0213H103.219V48.0213ZM103.219 46.1545V45.1545H102.219V46.1545H103.219ZM109.838 46.1545H110.838V45.1545H109.838V46.1545ZM108.922 51.755L108.056 51.2549L108.054 51.2583L108.922 51.755ZM106.41 54.2158L106.887 55.0948L106.889 55.0939L106.41 54.2158ZM98.6881 53.9952L98.1585 54.8434L98.1604 54.8446L98.6881 53.9952ZM95.9727 50.9064L95.0723 51.3414L95.0738 51.3445L95.9727 50.9064ZM95.5569 42.4462L94.6097 42.1256L94.6087 42.1285L95.5569 42.4462ZM97.1353 39.629L97.8875 40.2879L97.8875 40.2879L97.1353 39.629ZM99.5452 37.847L99.1385 36.9334L99.5452 37.847ZM105.171 37.6434L104.841 38.5873L104.849 38.59L105.171 37.6434ZM107.301 38.8059L106.672 39.5834L106.68 39.5895L107.301 38.8059ZM108.871 40.5964L108.014 41.1119L108.016 41.115L108.871 40.5964ZM109.736 42.896V43.896H110.942L110.719 42.7113L109.736 42.896ZM107.564 42.896L108.515 42.5854C108.302 41.9346 108.017 41.3374 107.655 40.8006L106.826 41.3601L105.997 41.9196C106.246 42.2879 106.453 42.7146 106.614 43.2066L107.564 42.896ZM106.826 41.3601L107.663 40.8126C107.304 40.2641 106.869 39.7901 106.358 39.3968L105.748 40.1891L105.138 40.9813C105.465 41.233 105.748 41.5396 105.989 41.9076L106.826 41.3601ZM105.748 40.1891L106.364 39.4009C105.853 39.0023 105.278 38.7028 104.647 38.4991L104.34 39.4508L104.033 40.4025C104.453 40.5382 104.817 40.7309 105.133 40.9773L105.748 40.1891ZM104.34 39.4508L104.647 38.4991C104.009 38.2934 103.327 38.1962 102.608 38.1962V39.1962V40.1962C103.146 40.1962 103.618 40.2688 104.033 40.4025L104.34 39.4508ZM102.608 39.1962V38.1962C101.397 38.1962 100.274 38.5122 99.2662 39.1481L99.7998 39.9939L100.333 40.8397C101.011 40.4121 101.761 40.1962 102.608 40.1962V39.1962ZM99.7998 39.9939L99.2662 39.1481C98.2414 39.7947 97.454 40.7329 96.8874 41.911L97.7887 42.3444L98.6899 42.7778C99.119 41.8854 99.6723 41.2567 100.333 40.8397L99.7998 39.9939ZM97.7887 42.3444L96.8874 41.911C96.3077 43.1167 96.0419 44.5443 96.0419 46.1545H97.0419H98.0419C98.0419 44.7551 98.274 43.6427 98.6899 42.7778L97.7887 42.3444ZM97.0419 46.1545H96.0419C96.0419 47.7661 96.311 49.1952 96.8979 50.4019L97.7971 49.9645L98.6964 49.5272C98.2763 48.6634 98.0419 47.5524 98.0419 46.1545H97.0419ZM97.7971 49.9645L96.8979 50.4019C97.4724 51.5832 98.2738 52.5209 99.3162 53.1655L99.8422 52.315L100.368 51.4645C99.6908 51.0456 99.1289 50.4163 98.6964 49.5272L97.7971 49.9645ZM99.8422 52.315L99.3162 53.1655C100.344 53.8013 101.496 54.1127 102.744 54.1127V53.1127V52.1127C101.843 52.1127 101.06 51.8923 100.368 51.4645L99.8422 52.315ZM102.744 53.1127V54.1127C103.886 54.1127 104.935 53.8682 105.863 53.3489L105.375 52.4763L104.886 51.6036C104.298 51.9329 103.594 52.1127 102.744 52.1127V53.1127ZM105.375 52.4763L105.865 53.3477C106.795 52.8242 107.523 52.0813 108.035 51.1378L107.157 50.6603L106.278 50.1828C105.942 50.8008 105.482 51.2685 104.884 51.6049L105.375 52.4763ZM107.157 50.6603L108.034 51.1401C108.558 50.1814 108.802 49.0854 108.802 47.8855H107.802H106.802C106.802 48.8127 106.615 49.5666 106.279 50.1806L107.157 50.6603ZM107.802 47.8855L107.596 48.8641L108.241 48.9999L108.447 48.0213L108.653 47.0428L108.008 46.907L107.802 47.8855ZM108.447 48.0213V47.0213H103.219V48.0213V49.0213H108.447V48.0213ZM103.219 48.0213H104.219V46.1545H103.219H102.219V48.0213H103.219ZM103.219 46.1545V47.1545H109.838V46.1545V45.1545H103.219V46.1545ZM109.838 46.1545H108.838V48.0213H109.838H110.838V46.1545H109.838ZM109.838 48.0213H108.838C108.838 49.3073 108.565 50.3733 108.056 51.2549L108.922 51.755L109.788 52.2551C110.501 51.0209 110.838 49.5977 110.838 48.0213H109.838ZM108.922 51.755L108.054 51.2583C107.54 52.1556 106.838 52.8438 105.932 53.3377L106.41 54.2158L106.889 55.0939C108.121 54.4225 109.093 53.4701 109.79 52.2516L108.922 51.755ZM106.41 54.2158L105.933 53.3368C105.036 53.8239 103.982 54.0813 102.744 54.0813V55.0813V56.0813C104.267 56.0813 105.657 55.7618 106.887 55.0948L106.41 54.2158ZM102.744 55.0813V54.0813C101.369 54.0813 100.204 53.7598 99.2159 53.1458L98.6881 53.9952L98.1604 54.8446C99.5029 55.6787 101.042 56.0813 102.744 56.0813V55.0813ZM98.6881 53.9952L99.2178 53.147C98.2309 52.5308 97.4474 51.6499 96.8717 50.4684L95.9727 50.9064L95.0738 51.3445C95.7992 52.8331 96.826 54.0114 98.1585 54.8434L98.6881 53.9952ZM95.9727 50.9064L96.8732 50.4715C96.3074 49.3002 96.0054 47.8715 96.0054 46.1545H95.0054H94.0054C94.0054 48.1032 94.3482 49.8425 95.0723 51.3414L95.9727 50.9064ZM95.0054 46.1545H96.0054C96.0054 44.8681 96.1775 43.7419 96.5051 42.7639L95.5569 42.4462L94.6087 42.1285C94.201 43.3456 94.0054 44.6915 94.0054 46.1545H95.0054ZM95.5569 42.4462L96.5042 42.7668C96.8409 41.772 97.3058 40.952 97.8875 40.2879L97.1353 39.629L96.383 38.9701C95.607 39.8561 95.0197 40.9142 94.6097 42.1256L95.5569 42.4462ZM97.1353 39.629L97.8875 40.2879C98.4724 39.6202 99.1583 39.1138 99.9518 38.7606L99.5452 37.847L99.1385 36.9334C98.0765 37.4062 97.1558 38.0878 96.383 38.9701L97.1353 39.629ZM99.5452 37.847L99.9518 38.7606C100.74 38.41 101.62 38.2276 102.608 38.2276V37.2276V36.2276C101.368 36.2276 100.206 36.4582 99.1385 36.9334L99.5452 37.847ZM102.608 37.2276V38.2276C103.423 38.2276 104.164 38.3505 104.841 38.5872L105.171 37.6434L105.502 36.6995C104.594 36.3819 103.627 36.2276 102.608 36.2276V37.2276ZM105.171 37.6434L104.849 38.59C105.541 38.8257 106.146 39.1577 106.672 39.5833L107.301 38.8059L107.93 38.0285C107.212 37.4472 106.397 37.0042 105.493 36.6967L105.171 37.6434ZM107.301 38.8059L106.68 39.5895C107.212 40.0118 107.656 40.5174 108.014 41.1119L108.871 40.5964L109.728 40.0809C109.248 39.2837 108.645 38.5956 107.922 38.0223L107.301 38.8059ZM108.871 40.5964L108.016 41.115C108.368 41.6961 108.616 42.3484 108.754 43.0807L109.736 42.896L110.719 42.7113C110.54 41.7578 110.211 40.8769 109.726 40.0778L108.871 40.5964ZM109.736 42.896V41.896H107.564V42.896V43.896H109.736V42.896ZM111.412 37.4652V36.4652H109.624L110.56 37.9888L111.412 37.4652ZM113.822 37.4652L114.682 36.9544L114.391 36.4652H113.822V37.4652ZM118.642 45.5774L117.782 46.0882L118.073 46.5774H118.642V45.5774ZM118.846 45.5774V46.5774H119.415L119.705 46.0882L118.846 45.5774ZM123.666 37.4652V36.4652H123.097L122.806 36.9544L123.666 37.4652ZM126.076 37.4652L126.927 37.9888L127.864 36.4652H126.076V37.4652ZM119.796 47.6819L118.944 47.1583L118.796 47.3991V47.6819H119.796ZM119.796 54.8438V55.8438H120.796V54.8438H119.796ZM117.692 54.8438H116.692V55.8438H117.692V54.8438ZM117.692 47.6819H118.692V47.3991L118.544 47.1583L117.692 47.6819ZM111.412 37.4652V38.4652H113.822V37.4652V36.4652H111.412V37.4652ZM113.822 37.4652L112.963 37.976L117.782 46.0882L118.642 45.5774L119.502 45.0667L114.682 36.9544L113.822 37.4652ZM118.642 45.5774V46.5774H118.846V45.5774V44.5774H118.642V45.5774ZM118.846 45.5774L119.705 46.0882L124.525 37.976L123.666 37.4652L122.806 36.9544L117.986 45.0667L118.846 45.5774ZM123.666 37.4652V38.4652H126.076V37.4652V36.4652H123.666V37.4652ZM126.076 37.4652L125.224 36.9416L118.944 47.1583L119.796 47.6819L120.648 48.2055L126.927 37.9888L126.076 37.4652ZM119.796 47.6819H118.796V54.8438H119.796H120.796V47.6819H119.796ZM119.796 54.8438V53.8438H117.692V54.8438V55.8438H119.796V54.8438ZM117.692 54.8438H118.692V47.6819H117.692H116.692V54.8438H117.692ZM117.692 47.6819L118.544 47.1583L112.264 36.9416L111.412 37.4652L110.56 37.9888L116.84 48.2055L117.692 47.6819ZM128.797 37.4652V36.4652H127.797V37.4652H128.797ZM131.309 37.4652L132.234 37.0863L131.98 36.4652H131.309V37.4652ZM137.215 51.8908L136.29 52.2696L136.544 52.8908H137.215V51.8908ZM137.419 51.8908V52.8908H138.09L138.344 52.2696L137.419 51.8908ZM143.325 37.4652V36.4652H142.654L142.399 37.0863L143.325 37.4652ZM145.836 37.4652H146.836V36.4652H145.836V37.4652ZM145.836 54.8438V55.8438H146.836V54.8438H145.836ZM143.868 54.8438H142.868V55.8438H143.868V54.8438ZM143.868 41.6401H144.868V40.6401H143.868V41.6401ZM143.698 41.6401V40.6401H143.028L142.773 41.2597L143.698 41.6401ZM138.267 54.8438V55.8438H138.937L139.192 55.2241L138.267 54.8438ZM136.366 54.8438L135.442 55.2241L135.696 55.8438H136.366V54.8438ZM130.936 41.6401L131.86 41.2597L131.606 40.6401H130.936V41.6401ZM130.766 41.6401V40.6401H129.766V41.6401H130.766ZM130.766 54.8438V55.8438H131.766V54.8438H130.766ZM128.797 54.8438H127.797V55.8438H128.797V54.8438ZM128.797 37.4652V38.4652H131.309V37.4652V36.4652H128.797V37.4652ZM131.309 37.4652L130.384 37.8441L136.29 52.2696L137.215 51.8908L138.14 51.5119L132.234 37.0863L131.309 37.4652ZM137.215 51.8908V52.8908H137.419V51.8908V50.8908H137.215V51.8908ZM137.419 51.8908L138.344 52.2696L144.25 37.8441L143.325 37.4652L142.399 37.0863L136.493 51.5119L137.419 51.8908ZM143.325 37.4652V38.4652H145.836V37.4652V36.4652H143.325V37.4652ZM145.836 37.4652H144.836V54.8438H145.836H146.836V37.4652H145.836ZM145.836 54.8438V53.8438H143.868V54.8438V55.8438H145.836V54.8438ZM143.868 54.8438H144.868V41.6401H143.868H142.868V54.8438H143.868ZM143.868 41.6401V40.6401H143.698V41.6401V42.6401H143.868V41.6401ZM143.698 41.6401L142.773 41.2597L137.342 54.4634L138.267 54.8438L139.192 55.2241L144.623 42.0205L143.698 41.6401ZM138.267 54.8438V53.8438H136.366V54.8438V55.8438H138.267V54.8438ZM136.366 54.8438L137.291 54.4634L131.86 41.2597L130.936 41.6401L130.011 42.0205L135.442 55.2241L136.366 54.8438ZM130.936 41.6401V40.6401H130.766V41.6401V42.6401H130.936V41.6401ZM130.766 41.6401H129.766V54.8438H130.766H131.766V41.6401H130.766ZM130.766 54.8438V53.8438H128.797V54.8438V55.8438H130.766V54.8438ZM128.797 54.8438H129.797V37.4652H128.797H127.797V54.8438H128.797Z" fill="#22181C" mask="url(#path-7-outside-1_1525_936)"/>
</svg>
