<svg width="100" height="65" viewBox="0 0 100 65" fill="none" xmlns="http://www.w3.org/2000/svg">
<path d="M83 1.5C90.4558 1.5 96.5 7.54416 96.5 15V62.5H20C9.78273 62.5 1.5 54.2173 1.5 44V1.5H83Z" fill="#22181C"/>
<path d="M83 1.5C90.4558 1.5 96.5 7.54416 96.5 15V62.5H20C9.78273 62.5 1.5 54.2173 1.5 44V1.5H83Z" stroke="#22181C" stroke-width="3"/>
<path d="M83 3.5C89.3513 3.5 94.5 8.64873 94.5 15V60.5H20C10.8873 60.5 3.5 53.1127 3.5 44V3.5H83Z" stroke="#F6BD60" stroke-width="3"/>
<path d="M72.3828 31.4219V55.4219H66.3828V31.4219H72.3828Z" fill="#B9CFD4" stroke="#22181C" stroke-width="1.5"/>
<path d="M54.3828 31.4219V55.4219H48.3828V31.4219H54.3828Z" fill="#B9CFD4" stroke="#22181C" stroke-width="1.5"/>
<path d="M99 9.42188V14.9062H88.0781V55.2656H82.5938V14.9062H38.8125V55.2656H33.3281V35.1094L13.0508 40.6406V61.6123L7.88281 63.1709V17.3291L13.0508 15.7275V35.1094L33.3281 29.5781V9.42188H99Z" fill="#B9CFD4"/>
<path d="M99 9.42188H99.75V8.67188H99V9.42188ZM99 14.9062V15.6562H99.75V14.9062H99ZM88.0781 14.9062V14.1562H87.3281V14.9062H88.0781ZM88.0781 55.2656V56.0156H88.8281V55.2656H88.0781ZM82.5938 55.2656H81.8438V56.0156H82.5938V55.2656ZM82.5938 14.9062H83.3438V14.1562H82.5938V14.9062ZM38.8125 14.9062V14.1562H38.0625V14.9062H38.8125ZM38.8125 55.2656V56.0156H39.5625V55.2656H38.8125ZM33.3281 55.2656H32.5781V56.0156H33.3281V55.2656ZM33.3281 35.1094H34.0781V34.1274L33.1308 34.3858L33.3281 35.1094ZM13.0508 40.6406L12.8534 39.9171L12.3008 40.0678V40.6406H13.0508ZM13.0508 61.6123L13.2673 62.3304L13.8008 62.1695V61.6123H13.0508ZM7.88281 63.1709H7.13281V64.1805L8.09937 63.889L7.88281 63.1709ZM7.88281 17.3291L7.6608 16.6127L7.13281 16.7763V17.3291H7.88281ZM13.0508 15.7275H13.8008V14.7099L12.8288 15.0112L13.0508 15.7275ZM13.0508 35.1094H12.3008V36.0914L13.2482 35.8329L13.0508 35.1094ZM33.3281 29.5781L33.5255 30.3017L34.0781 30.1509V29.5781H33.3281ZM33.3281 9.42188V8.67188H32.5781V9.42188H33.3281ZM99 9.42188H98.25V14.9062H99H99.75V9.42188H99ZM99 14.9062V14.1562H88.0781V14.9062V15.6562H99V14.9062ZM88.0781 14.9062H87.3281V55.2656H88.0781H88.8281V14.9062H88.0781ZM88.0781 55.2656V54.5156H82.5938V55.2656V56.0156H88.0781V55.2656ZM82.5938 55.2656H83.3438V14.9062H82.5938H81.8438V55.2656H82.5938ZM82.5938 14.9062V14.1562H38.8125V14.9062V15.6562H82.5938V14.9062ZM38.8125 14.9062H38.0625V55.2656H38.8125H39.5625V14.9062H38.8125ZM38.8125 55.2656V54.5156H33.3281V55.2656V56.0156H38.8125V55.2656ZM33.3281 55.2656H34.0781V35.1094H33.3281H32.5781V55.2656H33.3281ZM33.3281 35.1094L33.1308 34.3858L12.8534 39.9171L13.0508 40.6406L13.2482 41.3642L33.5255 35.8329L33.3281 35.1094ZM13.0508 40.6406H12.3008V61.6123H13.0508H13.8008V40.6406H13.0508ZM13.0508 61.6123L12.8342 60.8942L7.66626 62.4528L7.88281 63.1709L8.09937 63.889L13.2673 62.3304L13.0508 61.6123ZM7.88281 63.1709H8.63281V17.3291H7.88281H7.13281V63.1709H7.88281ZM7.88281 17.3291L8.10482 18.0455L13.2728 16.4439L13.0508 15.7275L12.8288 15.0112L7.6608 16.6127L7.88281 17.3291ZM13.0508 15.7275H12.3008V35.1094H13.0508H13.8008V15.7275H13.0508ZM13.0508 35.1094L13.2482 35.8329L33.5255 30.3017L33.3281 29.5781L33.1308 28.8546L12.8534 34.3858L13.0508 35.1094ZM33.3281 29.5781H34.0781V9.42188H33.3281H32.5781V29.5781H33.3281ZM33.3281 9.42188V10.1719H99V9.42188V8.67188H33.3281V9.42188Z" fill="#22181C"/>
<mask id="path-7-outside-1_1525_936" maskUnits="userSpaceOnUse" x="46.3828" y="17.4219" width="28" height="11" fill="black">
<rect fill="white" x="46.3828" y="17.4219" width="28" height="11"/>
<path d="M53.7821 21.448C53.6887 21.1623 53.5657 20.9063 53.4129 20.68C53.263 20.4509 53.0834 20.2558 52.8741 20.0945C52.6676 19.9333 52.4328 19.8103 52.1698 19.7254C51.9067 19.6406 51.6182 19.5981 51.3042 19.5981C50.7895 19.5981 50.3213 19.7311 49.8999 19.9969C49.4784 20.2628 49.1432 20.6546 48.8943 21.1722C48.6454 21.6898 48.521 22.3248 48.521 23.0772C48.521 23.8296 48.6468 24.4646 48.8986 24.9823C49.1503 25.4999 49.4912 25.8916 49.9211 26.1575C50.351 26.4234 50.8347 26.5563 51.3721 26.5563C51.87 26.5563 52.3084 26.4503 52.6874 26.2381C53.0693 26.0232 53.3663 25.7205 53.5784 25.3302C53.7934 24.937 53.9009 24.4745 53.9009 23.9428L54.2233 24.0107H51.6097V23.0772H54.9191V24.0107C54.9191 24.7263 54.7664 25.3486 54.4609 25.8775C54.1582 26.4064 53.7396 26.8166 53.205 27.1079C52.6733 27.3964 52.0623 27.5407 51.3721 27.5407C50.6028 27.5407 49.9267 27.3596 49.3441 26.9976C48.7642 26.6355 48.3116 26.1207 47.9864 25.4532C47.6639 24.7857 47.5027 23.9937 47.5027 23.0772C47.5027 22.3899 47.5946 21.7719 47.7785 21.2231C47.9652 20.6716 48.2282 20.202 48.5676 19.8145C48.9071 19.427 49.3087 19.13 49.7726 18.9235C50.2365 18.717 50.747 18.6138 51.3042 18.6138C51.7625 18.6138 52.1896 18.6831 52.5856 18.8217C52.9844 18.9575 53.3394 19.1512 53.6505 19.403C53.9645 19.6519 54.2261 19.9503 54.4354 20.2982C54.6448 20.6433 54.789 21.0265 54.8682 21.448H53.7821ZM55.7062 18.7326H56.9111L59.321 22.7887H59.4229L61.8328 18.7326H63.0378L59.8981 23.8409V27.4219H58.8459V23.8409L55.7062 18.7326ZM64.3986 18.7326H65.6545L68.6075 25.9454H68.7093L71.6623 18.7326H72.9182V27.4219H71.9339V20.8201H71.849L69.1336 27.4219H68.1832L65.4678 20.8201H65.383V27.4219H64.3986V18.7326Z"/>
</mask>
<path d="M53.7821 21.448C53.6887 21.1623 53.5657 20.9063 53.4129 20.68C53.263 20.4509 53.0834 20.2558 52.8741 20.0945C52.6676 19.9333 52.4328 19.8103 52.1698 19.7254C51.9067 19.6406 51.6182 19.5981 51.3042 19.5981C50.7895 19.5981 50.3213 19.7311 49.8999 19.9969C49.4784 20.2628 49.1432 20.6546 48.8943 21.1722C48.6454 21.6898 48.521 22.3248 48.521 23.0772C48.521 23.8296 48.6468 24.4646 48.8986 24.9823C49.1503 25.4999 49.4912 25.8916 49.9211 26.1575C50.351 26.4234 50.8347 26.5563 51.3721 26.5563C51.87 26.5563 52.3084 26.4503 52.6874 26.2381C53.0693 26.0232 53.3663 25.7205 53.5784 25.3302C53.7934 24.937 53.9009 24.4745 53.9009 23.9428L54.2233 24.0107H51.6097V23.0772H54.9191V24.0107C54.9191 24.7263 54.7664 25.3486 54.4609 25.8775C54.1582 26.4064 53.7396 26.8166 53.205 27.1079C52.6733 27.3964 52.0623 27.5407 51.3721 27.5407C50.6028 27.5407 49.9267 27.3596 49.3441 26.9976C48.7642 26.6355 48.3116 26.1207 47.9864 25.4532C47.6639 24.7857 47.5027 23.9937 47.5027 23.0772C47.5027 22.3899 47.5946 21.7719 47.7785 21.2231C47.9652 20.6716 48.2282 20.202 48.5676 19.8145C48.9071 19.427 49.3087 19.13 49.7726 18.9235C50.2365 18.717 50.747 18.6138 51.3042 18.6138C51.7625 18.6138 52.1896 18.6831 52.5856 18.8217C52.9844 18.9575 53.3394 19.1512 53.6505 19.403C53.9645 19.6519 54.2261 19.9503 54.4354 20.2982C54.6448 20.6433 54.789 21.0265 54.8682 21.448H53.7821ZM55.7062 18.7326H56.9111L59.321 22.7887H59.4229L61.8328 18.7326H63.0378L59.8981 23.8409V27.4219H58.8459V23.8409L55.7062 18.7326ZM64.3986 18.7326H65.6545L68.6075 25.9454H68.7093L71.6623 18.7326H72.9182V27.4219H71.9339V20.8201H71.849L69.1336 27.4219H68.1832L65.4678 20.8201H65.383V27.4219H64.3986V18.7326Z" fill="#FFFAFA"/>
<path d="M53.7821 21.448L53.3068 21.6033L53.4194 21.948H53.7821V21.448ZM53.4129 20.68L52.9945 20.9538L52.9985 20.9598L53.4129 20.68ZM52.8741 20.0945L52.5664 20.4886L52.569 20.4906L52.8741 20.0945ZM52.1698 19.7254L52.3233 19.2496L52.3233 19.2496L52.1698 19.7254ZM48.8943 21.1722L49.3449 21.3889H49.3449L48.8943 21.1722ZM48.8986 24.9823L48.4489 25.2009L48.8986 24.9823ZM49.9211 26.1575L49.6581 26.5828L49.9211 26.1575ZM52.6874 26.2381L52.9316 26.6744L52.9327 26.6738L52.6874 26.2381ZM53.5784 25.3302L53.1397 25.0903L53.1391 25.0914L53.5784 25.3302ZM53.9009 23.9428L54.0039 23.4535L53.4009 23.3265V23.9428H53.9009ZM54.2233 24.0107V24.5107L54.3263 23.5214L54.2233 24.0107ZM51.6097 24.0107H51.1097V24.5107H51.6097V24.0107ZM51.6097 23.0772V22.5772H51.1097V23.0772H51.6097ZM54.9191 23.0772H55.4191V22.5772H54.9191V23.0772ZM54.4609 25.8775L54.0279 25.6274L54.0269 25.6292L54.4609 25.8775ZM53.205 27.1079L53.4435 27.5474L53.4443 27.5469L53.205 27.1079ZM49.3441 26.9976L49.0793 27.4217L49.0802 27.4223L49.3441 26.9976ZM47.9864 25.4532L47.5361 25.6707L47.5369 25.6722L47.9864 25.4532ZM47.7785 21.2231L47.3049 21.0628L47.3044 21.0643L47.7785 21.2231ZM48.5676 19.8145L48.9438 20.144V20.144L48.5676 19.8145ZM49.7726 18.9235L49.5693 18.4667L49.7726 18.9235ZM52.5856 18.8217L52.4204 19.2936L52.4244 19.295L52.5856 18.8217ZM53.6505 19.403L53.336 19.7917L53.3399 19.7948L53.6505 19.403ZM54.4354 20.2982L54.007 20.5559L54.0079 20.5575L54.4354 20.2982ZM54.8682 21.448V21.948H55.4709L55.3596 21.3556L54.8682 21.448ZM53.7821 21.448L54.2573 21.2927C54.151 20.9673 54.0085 20.6687 53.8274 20.4003L53.4129 20.68L52.9985 20.9598C53.1228 21.1439 53.2264 21.3573 53.3068 21.6033L53.7821 21.448ZM53.4129 20.68L53.8313 20.4063C53.6519 20.1321 53.4345 19.895 53.1792 19.6984L52.8741 20.0945L52.569 20.4906C52.7323 20.6165 52.8741 20.7698 52.9945 20.9538L53.4129 20.68ZM52.8741 20.0945L53.1818 19.7004C52.9266 19.5012 52.639 19.3514 52.3233 19.2496L52.1698 19.7254L52.0163 20.2013C52.2266 20.2691 52.4086 20.3654 52.5664 20.4886L52.8741 20.0945ZM52.1698 19.7254L52.3233 19.2496C52.0044 19.1467 51.6634 19.0981 51.3042 19.0981V19.5981V20.0981C51.5731 20.0981 51.809 20.1344 52.0163 20.2013L52.1698 19.7254ZM51.3042 19.5981V19.0981C50.6983 19.0981 50.1371 19.2561 49.6331 19.5741L49.8999 19.9969L50.1667 20.4198C50.5055 20.2061 50.8806 20.0981 51.3042 20.0981V19.5981ZM49.8999 19.9969L49.6331 19.5741C49.1207 19.8973 48.727 20.3665 48.4437 20.9555L48.8943 21.1722L49.3449 21.3889C49.5595 20.9427 49.8362 20.6283 50.1667 20.4198L49.8999 19.9969ZM48.8943 21.1722L48.4437 20.9555C48.1538 21.5583 48.021 22.2721 48.021 23.0772H48.521H49.021C49.021 22.3776 49.137 21.8213 49.3449 21.3889L48.8943 21.1722ZM48.521 23.0772H48.021C48.021 23.883 48.1555 24.5976 48.4489 25.2009L48.8986 24.9823L49.3482 24.7636C49.1382 24.3317 49.021 23.7762 49.021 23.0772H48.521ZM48.8986 24.9823L48.4489 25.2009C48.7362 25.7916 49.1369 26.2605 49.6581 26.5828L49.9211 26.1575L50.1841 25.7323C49.8454 25.5228 49.5644 25.2082 49.3482 24.7636L48.8986 24.9823ZM49.9211 26.1575L49.6581 26.5828C50.1721 26.9006 50.7479 27.0563 51.3721 27.0563V26.5563V26.0563C50.9215 26.0563 50.53 25.9462 50.1841 25.7323L49.9211 26.1575ZM51.3721 26.5563V27.0563C51.9428 27.0563 52.4677 26.9341 52.9316 26.6744L52.6874 26.2381L52.4432 25.8018C52.1491 25.9664 51.7971 26.0563 51.3721 26.0563V26.5563ZM52.6874 26.2381L52.9327 26.6738C53.3976 26.4121 53.7613 26.0406 54.0177 25.5689L53.5784 25.3302L53.1391 25.0914C52.9712 25.4004 52.7409 25.6342 52.4421 25.8024L52.6874 26.2381ZM53.5784 25.3302L54.0171 25.57C54.2792 25.0907 54.4009 24.5427 54.4009 23.9428H53.9009H53.4009C53.4009 24.4064 53.3076 24.7833 53.1397 25.0903L53.5784 25.3302ZM53.9009 23.9428L53.7978 24.432L54.1203 24.4999L54.2233 24.0107L54.3263 23.5214L54.0039 23.4535L53.9009 23.9428ZM54.2233 24.0107V23.5107H51.6097V24.0107V24.5107H54.2233V24.0107ZM51.6097 24.0107H52.1097V23.0772H51.6097H51.1097V24.0107H51.6097ZM51.6097 23.0772V23.5772H54.9191V23.0772V22.5772H51.6097V23.0772ZM54.9191 23.0772H54.4191V24.0107H54.9191H55.4191V23.0772H54.9191ZM54.9191 24.0107H54.4191C54.4191 24.6537 54.2825 25.1867 54.0279 25.6274L54.4609 25.8775L54.8939 26.1276C55.2503 25.5104 55.4191 24.7989 55.4191 24.0107H54.9191ZM54.4609 25.8775L54.0269 25.6292C53.7702 26.0778 53.419 26.4219 52.9658 26.6689L53.205 27.1079L53.4443 27.5469C54.0603 27.2112 54.5463 26.735 54.8949 26.1258L54.4609 25.8775ZM53.205 27.1079L52.9666 26.6684C52.5178 26.9119 51.9909 27.0407 51.3721 27.0407V27.5407V28.0407C52.1337 28.0407 52.8287 27.8809 53.4435 27.5474L53.205 27.1079ZM51.3721 27.5407V27.0407C50.6844 27.0407 50.1021 26.8799 49.608 26.5729L49.3441 26.9976L49.0802 27.4223C49.7514 27.8394 50.5212 28.0407 51.3721 28.0407V27.5407ZM49.3441 26.9976L49.6089 26.5735C49.1154 26.2654 48.7237 25.8249 48.4358 25.2342L47.9864 25.4532L47.5369 25.6722C47.8996 26.4165 48.413 27.0057 49.0793 27.4217L49.3441 26.9976ZM47.9864 25.4532L48.4366 25.2357C48.1537 24.6501 48.0027 23.9358 48.0027 23.0772H47.5027H47.0027C47.0027 24.0516 47.1741 24.9212 47.5361 25.6707L47.9864 25.4532ZM47.5027 23.0772H48.0027C48.0027 22.434 48.0887 21.8709 48.2526 21.382L47.7785 21.2231L47.3044 21.0643C47.1005 21.6728 47.0027 22.3457 47.0027 23.0772H47.5027ZM47.7785 21.2231L48.2521 21.3834C48.4204 20.886 48.6529 20.476 48.9438 20.144L48.5676 19.8145L48.1915 19.4851C47.8035 19.928 47.5099 20.4571 47.3049 21.0628L47.7785 21.2231ZM48.5676 19.8145L48.9438 20.144C49.2362 19.8101 49.5792 19.5569 49.9759 19.3803L49.7726 18.9235L49.5693 18.4667C49.0383 18.7031 48.5779 19.0439 48.1915 19.4851L48.5676 19.8145ZM49.7726 18.9235L49.9759 19.3803C50.3698 19.205 50.8102 19.1138 51.3042 19.1138V18.6138V18.1138C50.6839 18.1138 50.1031 18.2291 49.5693 18.4667L49.7726 18.9235ZM51.3042 18.6138V19.1138C51.7114 19.1138 52.0822 19.1752 52.4204 19.2936L52.5856 18.8217L52.7508 18.3498C52.297 18.1909 51.8135 18.1138 51.3042 18.1138V18.6138ZM52.5856 18.8217L52.4244 19.295C52.7705 19.4128 53.073 19.5788 53.336 19.7917L53.6505 19.403L53.965 19.0142C53.6058 18.7236 53.1983 18.5021 52.7467 18.3484L52.5856 18.8217ZM53.6505 19.403L53.3399 19.7948C53.6062 20.0059 53.8282 20.2587 54.007 20.5559L54.4354 20.2982L54.8639 20.0404C54.6241 19.6418 54.3227 19.2978 53.9611 19.0111L53.6505 19.403ZM54.4354 20.2982L54.0079 20.5575C54.1842 20.8481 54.308 21.1742 54.3768 21.5403L54.8682 21.448L55.3596 21.3556C55.27 20.8789 55.1053 20.4385 54.863 20.0389L54.4354 20.2982ZM54.8682 21.448V20.948H53.7821V21.448V21.948H54.8682V21.448ZM55.7062 18.7326V18.2326H54.812L55.2802 18.9944L55.7062 18.7326ZM56.9111 18.7326L57.341 18.4772L57.1957 18.2326H56.9111V18.7326ZM59.321 22.7887L58.8912 23.0441L59.0365 23.2887H59.321V22.7887ZM59.4229 22.7887V23.2887H59.7074L59.8527 23.0441L59.4229 22.7887ZM61.8328 18.7326V18.2326H61.5483L61.4029 18.4772L61.8328 18.7326ZM63.0378 18.7326L63.4637 18.9944L63.932 18.2326H63.0378V18.7326ZM59.8981 23.8409L59.4721 23.5791L59.3981 23.6996V23.8409H59.8981ZM59.8981 27.4219V27.9219H60.3981V27.4219H59.8981ZM58.8459 27.4219H58.3459V27.9219H58.8459V27.4219ZM58.8459 23.8409H59.3459V23.6996L59.2718 23.5791L58.8459 23.8409ZM55.7062 18.7326V19.2326H56.9111V18.7326V18.2326H55.7062V18.7326ZM56.9111 18.7326L56.4813 18.988L58.8912 23.0441L59.321 22.7887L59.7509 22.5333L57.341 18.4772L56.9111 18.7326ZM59.321 22.7887V23.2887H59.4229V22.7887V22.2887H59.321V22.7887ZM59.4229 22.7887L59.8527 23.0441L62.2626 18.988L61.8328 18.7326L61.4029 18.4772L58.993 22.5333L59.4229 22.7887ZM61.8328 18.7326V19.2326H63.0378V18.7326V18.2326H61.8328V18.7326ZM63.0378 18.7326L62.6118 18.4708L59.4721 23.5791L59.8981 23.8409L60.324 24.1028L63.4637 18.9944L63.0378 18.7326ZM59.8981 23.8409H59.3981V27.4219H59.8981H60.3981V23.8409H59.8981ZM59.8981 27.4219V26.9219H58.8459V27.4219V27.9219H59.8981V27.4219ZM58.8459 27.4219H59.3459V23.8409H58.8459H58.3459V27.4219H58.8459ZM58.8459 23.8409L59.2718 23.5791L56.1321 18.4708L55.7062 18.7326L55.2802 18.9944L58.4199 24.1028L58.8459 23.8409ZM64.3986 18.7326V18.2326H63.8986V18.7326H64.3986ZM65.6545 18.7326L66.1172 18.5431L65.9901 18.2326H65.6545V18.7326ZM68.6075 25.9454L68.1448 26.1348L68.2719 26.4454H68.6075V25.9454ZM68.7093 25.9454V26.4454H69.0449L69.1721 26.1348L68.7093 25.9454ZM71.6623 18.7326V18.2326H71.3268L71.1996 18.5431L71.6623 18.7326ZM72.9182 18.7326H73.4182V18.2326H72.9182V18.7326ZM72.9182 27.4219V27.9219H73.4182V27.4219H72.9182ZM71.9339 27.4219H71.4339V27.9219H71.9339V27.4219ZM71.9339 20.8201H72.4339V20.3201H71.9339V20.8201ZM71.849 20.8201V20.3201H71.514L71.3866 20.6299L71.849 20.8201ZM69.1336 27.4219V27.9219H69.4686L69.596 27.6121L69.1336 27.4219ZM68.1832 27.4219L67.7208 27.6121L67.8482 27.9219H68.1832V27.4219ZM65.4678 20.8201L65.9302 20.6299L65.8028 20.3201H65.4678V20.8201ZM65.383 20.8201V20.3201H64.883V20.8201H65.383ZM65.383 27.4219V27.9219H65.883V27.4219H65.383ZM64.3986 27.4219H63.8986V27.9219H64.3986V27.4219ZM64.3986 18.7326V19.2326H65.6545V18.7326V18.2326H64.3986V18.7326ZM65.6545 18.7326L65.1918 18.922L68.1448 26.1348L68.6075 25.9454L69.0702 25.7559L66.1172 18.5431L65.6545 18.7326ZM68.6075 25.9454V26.4454H68.7093V25.9454V25.4454H68.6075V25.9454ZM68.7093 25.9454L69.1721 26.1348L72.1251 18.922L71.6623 18.7326L71.1996 18.5431L68.2466 25.7559L68.7093 25.9454ZM71.6623 18.7326V19.2326H72.9182V18.7326V18.2326H71.6623V18.7326ZM72.9182 18.7326H72.4182V27.4219H72.9182H73.4182V18.7326H72.9182ZM72.9182 27.4219V26.9219H71.9339V27.4219V27.9219H72.9182V27.4219ZM71.9339 27.4219H72.4339V20.8201H71.9339H71.4339V27.4219H71.9339ZM71.9339 20.8201V20.3201H71.849V20.8201V21.3201H71.9339V20.8201ZM71.849 20.8201L71.3866 20.6299L68.6712 27.2317L69.1336 27.4219L69.596 27.6121L72.3114 21.0102L71.849 20.8201ZM69.1336 27.4219V26.9219H68.1832V27.4219V27.9219H69.1336V27.4219ZM68.1832 27.4219L68.6456 27.2317L65.9302 20.6299L65.4678 20.8201L65.0054 21.0102L67.7208 27.6121L68.1832 27.4219ZM65.4678 20.8201V20.3201H65.383V20.8201V21.3201H65.4678V20.8201ZM65.383 20.8201H64.883V27.4219H65.383H65.883V20.8201H65.383ZM65.383 27.4219V26.9219H64.3986V27.4219V27.9219H65.383V27.4219ZM64.3986 27.4219H64.8986V18.7326H64.3986H63.8986V27.4219H64.3986Z" fill="#22181C" mask="url(#path-7-outside-1_1525_936)"/>
</svg>
