<svg width="300" height="193" viewBox="0 0 300 193" fill="none" xmlns="http://www.w3.org/2000/svg">
<path d="M249 4.5C271.368 4.5 289.5 22.6325 289.5 45V187.5H60C29.3482 187.5 4.5 162.652 4.5 132V4.5H249Z" fill="#22181C"/>
<path d="M249 4.5C271.368 4.5 289.5 22.6325 289.5 45V187.5H60C29.3482 187.5 4.5 162.652 4.5 132V4.5H249Z" stroke="#22181C" stroke-width="9"/>
<path d="M249 10.5C268.054 10.5 283.5 25.9462 283.5 45V181.5H60C32.6619 181.5 10.5 159.338 10.5 132V10.5H249Z" stroke="#F6BD60" stroke-width="9"/>
<path d="M217.148 94.2656V166.266H199.148V94.2656H217.148Z" fill="#B9CFD4" stroke="#22181C" stroke-width="4.5"/>
<path d="M163.148 94.2656V166.266H145.148V94.2656H163.148Z" fill="#B9CFD4" stroke="#22181C" stroke-width="4.5"/>
<path d="M297 28.2656V44.7188H264.234V165.797H247.781V44.7188H116.438V165.797H99.9844V105.328L39.1514 121.922V184.837L23.6484 189.514V51.9873L39.1514 47.1816V105.328L99.9844 88.7344V28.2656H297Z" fill="#B9CFD4"/>
<path d="M297 28.2656H299.25V26.0156H297V28.2656ZM297 44.7188V46.9688H299.25V44.7188H297ZM264.234 44.7188V42.4688H261.984V44.7188H264.234ZM264.234 165.797V168.047H266.484V165.797H264.234ZM247.781 165.797H245.531V168.047H247.781V165.797ZM247.781 44.7188H250.031V42.4688H247.781V44.7188ZM116.438 44.7188V42.4688H114.188V44.7188H116.438ZM116.438 165.797V168.047H118.688V165.797H116.438ZM99.9844 165.797H97.7344V168.047H99.9844V165.797ZM99.9844 105.328H102.234V102.382L99.3923 103.157L99.9844 105.328ZM39.1514 121.922L38.5593 119.751L36.9014 120.203V121.922H39.1514ZM39.1514 184.837L39.8012 186.991L41.4014 186.508V184.837H39.1514ZM23.6484 189.514H21.3984V192.543L24.2983 191.668L23.6484 189.514ZM23.6484 51.9873L22.9822 49.8382L21.3984 50.3291V51.9873H23.6484ZM39.1514 47.1816H41.4014V44.1286L38.4852 45.0325L39.1514 47.1816ZM39.1514 105.328H36.9014V108.274L39.7435 107.499L39.1514 105.328ZM99.9844 88.7344L100.576 90.9051L102.234 90.4528V88.7344H99.9844ZM99.9844 28.2656V26.0156H97.7344V28.2656H99.9844ZM297 28.2656H294.75V44.7188H297H299.25V28.2656H297ZM297 44.7188V42.4688H264.234V44.7188V46.9688H297V44.7188ZM264.234 44.7188H261.984V165.797H264.234H266.484V44.7188H264.234ZM264.234 165.797V163.547H247.781V165.797V168.047H264.234V165.797ZM247.781 165.797H250.031V44.7188H247.781H245.531V165.797H247.781ZM247.781 44.7188V42.4688H116.438V44.7188V46.9688H247.781V44.7188ZM116.438 44.7188H114.188V165.797H116.438H118.688V44.7188H116.438ZM116.438 165.797V163.547H99.9844V165.797V168.047H116.438V165.797ZM99.9844 165.797H102.234V105.328H99.9844H97.7344V165.797H99.9844ZM99.9844 105.328L99.3923 103.157L38.5593 119.751L39.1514 121.922L39.7435 124.093L100.576 107.499L99.9844 105.328ZM39.1514 121.922H36.9014V184.837H39.1514H41.4014V121.922H39.1514ZM39.1514 184.837L38.5015 182.683L22.9986 187.36L23.6484 189.514L24.2983 191.668L39.8012 186.991L39.1514 184.837ZM23.6484 189.514H25.8984V51.9873H23.6484H21.3984V189.514H23.6484ZM23.6484 51.9873L24.3146 54.1364L39.8176 49.3308L39.1514 47.1816L38.4852 45.0325L22.9822 49.8382L23.6484 51.9873ZM39.1514 47.1816H36.9014V105.328H39.1514H41.4014V47.1816H39.1514ZM39.1514 105.328L39.7435 107.499L100.576 90.9051L99.9844 88.7344L99.3923 86.5637L38.5593 103.157L39.1514 105.328ZM99.9844 88.7344H102.234V28.2656H99.9844H97.7344V88.7344H99.9844ZM99.9844 28.2656V30.5156H297V28.2656V26.0156H99.9844V28.2656Z" fill="#22181C"/>
<mask id="path-7-outside-1_1525_936" maskUnits="userSpaceOnUse" x="140.148" y="54.2656" width="81" height="30" fill="black">
<rect fill="white" x="140.148" y="54.2656" width="81" height="30"/>
<path d="M161.346 64.344C161.066 63.4869 160.697 62.719 160.239 62.0401C159.789 61.3528 159.25 60.7673 158.622 60.2836C158.003 59.7999 157.299 59.4308 156.509 59.1762C155.72 58.9217 154.855 58.7944 153.913 58.7944C152.368 58.7944 150.964 59.1932 149.7 59.9908C148.435 60.7885 147.43 61.9638 146.683 63.5166C145.936 65.0695 145.563 66.9745 145.563 69.2317C145.563 71.4889 145.94 73.3939 146.696 74.9468C147.451 76.4996 148.473 77.6749 149.763 78.4725C151.053 79.2702 152.504 79.669 154.116 79.669C155.61 79.669 156.925 79.3508 158.062 78.7144C159.208 78.0695 160.099 77.1615 160.735 75.9905C161.38 74.811 161.703 73.4236 161.703 71.8283L162.67 72.032H154.829V69.2317H164.757V72.032C164.757 74.1788 164.299 76.0457 163.383 77.6325C162.475 79.2193 161.219 80.4497 159.615 81.3237C158.02 82.1893 156.187 82.622 154.116 82.622C151.808 82.622 149.78 82.0789 148.032 80.9928C146.293 79.9066 144.935 78.3622 143.959 76.3596C142.992 74.357 142.508 71.981 142.508 69.2317C142.508 67.1697 142.784 65.3156 143.335 63.6694C143.895 62.0147 144.685 60.6061 145.703 59.4435C146.721 58.281 147.926 57.39 149.318 56.7705C150.709 56.1511 152.241 55.8414 153.913 55.8414C155.287 55.8414 156.569 56.0493 157.757 56.4651C158.953 56.8724 160.018 57.4536 160.952 58.2089C161.893 58.9556 162.678 59.8508 163.306 60.8946C163.934 61.9298 164.367 63.0796 164.605 64.344H161.346ZM167.119 56.1978H170.733L177.963 68.3662H178.269L185.498 56.1978H189.113L179.694 71.5228V82.2656H176.538V71.5228L167.119 56.1978ZM193.196 56.1978H196.964L205.823 77.8361H206.128L214.987 56.1978H218.755V82.2656H215.802V62.4602H215.547L207.401 82.2656H204.55L196.403 62.4602H196.149V82.2656H193.196V56.1978Z"/>
</mask>
<path d="M161.346 64.344C161.066 63.4869 160.697 62.719 160.239 62.0401C159.789 61.3528 159.25 60.7673 158.622 60.2836C158.003 59.7999 157.299 59.4308 156.509 59.1762C155.72 58.9217 154.855 58.7944 153.913 58.7944C152.368 58.7944 150.964 59.1932 149.7 59.9908C148.435 60.7885 147.43 61.9638 146.683 63.5166C145.936 65.0695 145.563 66.9745 145.563 69.2317C145.563 71.4889 145.94 73.3939 146.696 74.9468C147.451 76.4996 148.473 77.6749 149.763 78.4725C151.053 79.2702 152.504 79.669 154.116 79.669C155.61 79.669 156.925 79.3508 158.062 78.7144C159.208 78.0695 160.099 77.1615 160.735 75.9905C161.38 74.811 161.703 73.4236 161.703 71.8283L162.67 72.032H154.829V69.2317H164.757V72.032C164.757 74.1788 164.299 76.0457 163.383 77.6325C162.475 79.2193 161.219 80.4497 159.615 81.3237C158.02 82.1893 156.187 82.622 154.116 82.622C151.808 82.622 149.78 82.0789 148.032 80.9928C146.293 79.9066 144.935 78.3622 143.959 76.3596C142.992 74.357 142.508 71.981 142.508 69.2317C142.508 67.1697 142.784 65.3156 143.335 63.6694C143.895 62.0147 144.685 60.6061 145.703 59.4435C146.721 58.281 147.926 57.39 149.318 56.7705C150.709 56.1511 152.241 55.8414 153.913 55.8414C155.287 55.8414 156.569 56.0493 157.757 56.4651C158.953 56.8724 160.018 57.4536 160.952 58.2089C161.893 58.9556 162.678 59.8508 163.306 60.8946C163.934 61.9298 164.367 63.0796 164.605 64.344H161.346ZM167.119 56.1978H170.733L177.963 68.3662H178.269L185.498 56.1978H189.113L179.694 71.5228V82.2656H176.538V71.5228L167.119 56.1978ZM193.196 56.1978H196.964L205.823 77.8361H206.128L214.987 56.1978H218.755V82.2656H215.802V62.4602H215.547L207.401 82.2656H204.55L196.403 62.4602H196.149V82.2656H193.196V56.1978Z" fill="#FFFAFA"/>
<path d="M161.346 64.344L159.92 64.8098L160.258 65.844H161.346V64.344ZM160.239 62.0401L158.984 62.8614L158.989 62.8704L158.996 62.8793L160.239 62.0401ZM158.622 60.2836L157.699 61.4659L157.707 61.4719L158.622 60.2836ZM156.509 59.1762L156.97 57.7487L156.97 57.7487L156.509 59.1762ZM146.683 63.5166L148.035 64.1667L148.035 64.1667L146.683 63.5166ZM146.696 74.9468L145.347 75.6028L145.347 75.6028L146.696 74.9468ZM149.763 78.4725L148.974 79.7483L149.763 78.4725ZM158.062 78.7144L158.795 80.0233L158.798 80.0215L158.062 78.7144ZM160.735 75.9905L159.419 75.2709L159.417 75.2742L160.735 75.9905ZM161.703 71.8283L162.012 70.3605L160.203 69.9796V71.8283H161.703ZM162.67 72.032V73.532L162.979 70.5641L162.67 72.032ZM154.829 72.032H153.329V73.532H154.829V72.032ZM154.829 69.2317V67.7317H153.329V69.2317H154.829ZM164.757 69.2317H166.257V67.7317H164.757V69.2317ZM163.383 77.6325L162.084 76.8823L162.081 76.8875L163.383 77.6325ZM159.615 81.3237L160.33 82.6422L160.333 82.6408L159.615 81.3237ZM148.032 80.9928L147.238 82.2651L147.241 82.2669L148.032 80.9928ZM143.959 76.3596L142.608 77.0121L142.611 77.0167L143.959 76.3596ZM143.335 63.6694L141.915 63.1885L141.913 63.1928L143.335 63.6694ZM145.703 59.4435L146.831 60.4319L146.831 60.4319L145.703 59.4435ZM157.757 56.4651L157.261 57.8809L157.273 57.885L157.757 56.4651ZM160.952 58.2089L160.008 59.375L160.014 59.3797L160.02 59.3843L160.952 58.2089ZM163.306 60.8946L162.021 61.6678L162.024 61.6725L163.306 60.8946ZM164.605 64.344V65.844H166.413L166.079 64.0669L164.605 64.344ZM161.346 64.344L162.772 63.8781C162.453 62.9019 162.026 62.0061 161.482 61.2009L160.239 62.0401L158.996 62.8793C159.368 63.4318 159.679 64.0719 159.92 64.8098L161.346 64.344ZM160.239 62.0401L161.494 61.2188C160.956 60.3962 160.303 59.6851 159.538 59.0953L158.622 60.2836L157.707 61.4719C158.197 61.8495 158.622 62.3094 158.984 62.8614L160.239 62.0401ZM158.622 60.2836L159.545 59.1013C158.78 58.5035 157.917 58.0542 156.97 57.7487L156.509 59.1762L156.049 60.6038C156.68 60.8074 157.226 61.0963 157.699 61.4659L158.622 60.2836ZM156.509 59.1762L156.97 57.7487C156.013 57.4401 154.99 57.2944 153.913 57.2944V58.7944V60.2944C154.719 60.2944 155.427 60.4032 156.049 60.6038L156.509 59.1762ZM153.913 58.7944V57.2944C152.095 57.2944 150.411 57.7682 148.899 58.7222L149.7 59.9908L150.5 61.2595C151.517 60.6182 152.642 60.2944 153.913 60.2944V58.7944ZM149.7 59.9908L148.899 58.7222C147.362 59.692 146.181 61.0994 145.331 62.8666L146.683 63.5166L148.035 64.1667C148.678 62.8281 149.508 61.885 150.5 61.2595L149.7 59.9908ZM146.683 63.5166L145.331 62.8666C144.462 64.675 144.063 66.8164 144.063 69.2317H145.563H147.063C147.063 67.1327 147.411 65.464 148.035 64.1667L146.683 63.5166ZM145.563 69.2317H144.063C144.063 71.6491 144.466 73.7927 145.347 75.6028L146.696 74.9468L148.045 74.2907C147.415 72.9951 147.063 71.3286 147.063 69.2317H145.563ZM146.696 74.9468L145.347 75.6028C146.209 77.3748 147.411 78.7814 148.974 79.7483L149.763 78.4725L150.552 77.1968C149.536 76.5684 148.693 75.6245 148.045 74.2907L146.696 74.9468ZM149.763 78.4725L148.974 79.7483C150.516 80.7019 152.244 81.169 154.116 81.169V79.669V78.169C152.764 78.169 151.59 77.8385 150.552 77.1968L149.763 78.4725ZM154.116 79.669V81.169C155.828 81.169 157.403 80.8023 158.795 80.0233L158.062 78.7144L157.33 77.4055C156.447 77.8993 155.391 78.169 154.116 78.169V79.669ZM158.062 78.7144L158.798 80.0215C160.193 79.2363 161.284 78.1219 162.053 76.7068L160.735 75.9905L159.417 75.2742C158.914 76.2011 158.223 76.9027 157.326 77.4073L158.062 78.7144ZM160.735 75.9905L162.051 76.7101C162.838 75.2721 163.203 73.6281 163.203 71.8283H161.703H160.203C160.203 73.2191 159.923 74.3499 159.419 75.2709L160.735 75.9905ZM161.703 71.8283L161.394 73.2961L162.361 73.4998L162.67 72.032L162.979 70.5641L162.012 70.3605L161.703 71.8283ZM162.67 72.032V70.532H154.829V72.032V73.532H162.67V72.032ZM154.829 72.032H156.329V69.2317H154.829H153.329V72.032H154.829ZM154.829 69.2317V70.7317H164.757V69.2317V67.7317H154.829V69.2317ZM164.757 69.2317H163.257V72.032H164.757H166.257V69.2317H164.757ZM164.757 72.032H163.257C163.257 73.961 162.847 75.56 162.084 76.8823L163.383 77.6325L164.682 78.3827C165.751 76.5313 166.257 74.3966 166.257 72.032H164.757ZM163.383 77.6325L162.081 76.8875C161.311 78.2334 160.257 79.2657 158.897 80.0066L159.615 81.3237L160.333 82.6408C162.181 81.6337 163.639 80.2051 164.685 78.3774L163.383 77.6325ZM159.615 81.3237L158.9 80.0053C157.553 80.7358 155.973 81.122 154.116 81.122V82.622V84.122C156.401 84.122 158.486 83.6427 160.33 82.6422L159.615 81.3237ZM154.116 82.622V81.122C152.053 81.122 150.306 80.6398 148.824 79.7187L148.032 80.9928L147.241 82.2669C149.254 83.5181 151.563 84.122 154.116 84.122V82.622ZM148.032 80.9928L148.827 79.7204C147.346 78.7961 146.171 77.4748 145.308 75.7026L143.959 76.3596L142.611 77.0167C143.699 79.2496 145.239 81.0171 147.238 82.2651L148.032 80.9928ZM143.959 76.3596L145.31 75.7072C144.461 73.9503 144.008 71.8073 144.008 69.2317H142.508H141.008C141.008 72.1548 141.522 74.7637 142.608 77.0121L143.959 76.3596ZM142.508 69.2317H144.008C144.008 67.3021 144.266 65.6128 144.758 64.1459L143.335 63.6694L141.913 63.1928C141.301 65.0184 141.008 67.0372 141.008 69.2317H142.508ZM143.335 63.6694L144.756 64.1503C145.261 62.658 145.959 61.428 146.831 60.4319L145.703 59.4435L144.575 58.4552C143.411 59.7841 142.53 61.3713 141.915 63.1885L143.335 63.6694ZM145.703 59.4435L146.831 60.4319C147.709 59.4302 148.737 58.6707 149.928 58.1409L149.318 56.7705L148.708 55.4002C147.115 56.1093 145.734 57.1317 144.575 58.4552L145.703 59.4435ZM149.318 56.7705L149.928 58.1409C151.109 57.6149 152.431 57.3414 153.913 57.3414V55.8414V54.3414C152.052 54.3414 150.309 54.6872 148.708 55.4002L149.318 56.7705ZM153.913 55.8414V57.3414C155.134 57.3414 156.247 57.5257 157.261 57.8809L157.757 56.4651L158.252 55.0493C156.891 54.5728 155.441 54.3414 153.913 54.3414V55.8414ZM157.757 56.4651L157.273 57.885C158.312 58.2385 159.219 58.7365 160.008 59.375L160.952 58.2089L161.895 57.0427C160.817 56.1707 159.595 55.5063 158.24 55.0451L157.757 56.4651ZM160.952 58.2089L160.02 59.3843C160.819 60.0177 161.485 60.7762 162.021 61.6678L163.306 60.8946L164.592 60.1213C163.872 58.9255 162.968 57.8935 161.883 57.0334L160.952 58.2089ZM163.306 60.8946L162.024 61.6725C162.553 62.5442 162.924 63.5226 163.13 64.621L164.605 64.344L166.079 64.0669C165.81 62.6366 165.316 61.3154 164.589 60.1166L163.306 60.8946ZM164.605 64.344V62.844H161.346V64.344V65.844H164.605V64.344ZM167.119 56.1978V54.6978H164.436L165.841 56.9832L167.119 56.1978ZM170.733 56.1978L172.023 55.4316L171.587 54.6978H170.733V56.1978ZM177.963 68.3662L176.674 69.1323L177.11 69.8662H177.963V68.3662ZM178.269 68.3662V69.8662H179.122L179.558 69.1323L178.269 68.3662ZM185.498 56.1978V54.6978H184.645L184.209 55.4316L185.498 56.1978ZM189.113 56.1978L190.391 56.9832L191.796 54.6978H189.113V56.1978ZM179.694 71.5228L178.416 70.7374L178.194 71.0987V71.5228H179.694ZM179.694 82.2656V83.7656H181.194V82.2656H179.694ZM176.538 82.2656H175.038V83.7656H176.538V82.2656ZM176.538 71.5228H178.038V71.0987L177.815 70.7374L176.538 71.5228ZM167.119 56.1978V57.6978H170.733V56.1978V54.6978H167.119V56.1978ZM170.733 56.1978L169.444 56.9639L176.674 69.1323L177.963 68.3662L179.253 67.6L172.023 55.4316L170.733 56.1978ZM177.963 68.3662V69.8662H178.269V68.3662V66.8662H177.963V68.3662ZM178.269 68.3662L179.558 69.1323L186.788 56.9639L185.498 56.1978L184.209 55.4316L176.979 67.6L178.269 68.3662ZM185.498 56.1978V57.6978H189.113V56.1978V54.6978H185.498V56.1978ZM189.113 56.1978L187.835 55.4123L178.416 70.7374L179.694 71.5228L180.972 72.3083L190.391 56.9832L189.113 56.1978ZM179.694 71.5228H178.194V82.2656H179.694H181.194V71.5228H179.694ZM179.694 82.2656V80.7656H176.538V82.2656V83.7656H179.694V82.2656ZM176.538 82.2656H178.038V71.5228H176.538H175.038V82.2656H176.538ZM176.538 71.5228L177.815 70.7374L168.396 55.4123L167.119 56.1978L165.841 56.9832L175.26 72.3083L176.538 71.5228ZM193.196 56.1978V54.6978H191.696V56.1978H193.196ZM196.964 56.1978L198.352 55.6294L197.97 54.6978H196.964V56.1978ZM205.823 77.8361L204.434 78.4045L204.816 79.3361H205.823V77.8361ZM206.128 77.8361V79.3361H207.135L207.516 78.4045L206.128 77.8361ZM214.987 56.1978V54.6978H213.98L213.599 55.6294L214.987 56.1978ZM218.755 56.1978H220.255V54.6978H218.755V56.1978ZM218.755 82.2656V83.7656H220.255V82.2656H218.755ZM215.802 82.2656H214.302V83.7656H215.802V82.2656ZM215.802 62.4602H217.302V60.9602H215.802V62.4602ZM215.547 62.4602V60.9602H214.542L214.16 61.8896L215.547 62.4602ZM207.401 82.2656V83.7656H208.406L208.788 82.8362L207.401 82.2656ZM204.55 82.2656L203.162 82.8362L203.545 83.7656H204.55V82.2656ZM196.403 62.4602L197.791 61.8896L197.408 60.9602H196.403V62.4602ZM196.149 62.4602V60.9602H194.649V62.4602H196.149ZM196.149 82.2656V83.7656H197.649V82.2656H196.149ZM193.196 82.2656H191.696V83.7656H193.196V82.2656ZM193.196 56.1978V57.6978H196.964V56.1978V54.6978H193.196V56.1978ZM196.964 56.1978L195.575 56.7661L204.434 78.4045L205.823 77.8361L207.211 77.2678L198.352 55.6294L196.964 56.1978ZM205.823 77.8361V79.3361H206.128V77.8361V76.3361H205.823V77.8361ZM206.128 77.8361L207.516 78.4045L216.375 56.7661L214.987 56.1978L213.599 55.6294L204.74 77.2678L206.128 77.8361ZM214.987 56.1978V57.6978H218.755V56.1978V54.6978H214.987V56.1978ZM218.755 56.1978H217.255V82.2656H218.755H220.255V56.1978H218.755ZM218.755 82.2656V80.7656H215.802V82.2656V83.7656H218.755V82.2656ZM215.802 82.2656H217.302V62.4602H215.802H214.302V82.2656H215.802ZM215.802 62.4602V60.9602H215.547V62.4602V63.9602H215.802V62.4602ZM215.547 62.4602L214.16 61.8896L206.014 81.695L207.401 82.2656L208.788 82.8362L216.934 63.0307L215.547 62.4602ZM207.401 82.2656V80.7656H204.55V82.2656V83.7656H207.401V82.2656ZM204.55 82.2656L205.937 81.695L197.791 61.8896L196.403 62.4602L195.016 63.0307L203.162 82.8362L204.55 82.2656ZM196.403 62.4602V60.9602H196.149V62.4602V63.9602H196.403V62.4602ZM196.149 62.4602H194.649V82.2656H196.149H197.649V62.4602H196.149ZM196.149 82.2656V80.7656H193.196V82.2656V83.7656H196.149V82.2656ZM193.196 82.2656H194.696V56.1978H193.196H191.696V82.2656H193.196Z" fill="#22181C" mask="url(#path-7-outside-1_1525_936)"/>
</svg>
