<svg width="113" height="67" viewBox="0 0 113 67" fill="none" xmlns="http://www.w3.org/2000/svg">
<rect x="1.5" y="2.30957" width="109.766" height="63" stroke="#F6BD60" stroke-width="3"/>
<path d="M42.8125 13.2939L42.8125 7.80959L103 7.80957V13.2939H92.078L92.0781 53.6533L86.5938 53.6534L86.5938 13.294L42.8125 13.2939Z" fill="white"/>
<path d="M76.3828 29.8096V53.8096H70.3828V29.8096H76.3828Z" fill="white"/>
<path d="M58.3828 29.8096V53.8096H52.3828V29.8096H58.3828Z" fill="white"/>
<path d="M11.8828 61.559V15.7167L17.0503 14.1149V33.4972L37.3281 27.9658V7.80957H42.8125V53.6533H37.3281V33.4971L17.0503 39.0284V60L11.8828 61.559Z" fill="white"/>
<mask id="path-6-outside-1_1289_3417" maskUnits="userSpaceOnUse" x="51.3828" y="16.8096" width="26" height="10" fill="black">
<rect fill="white" x="51.3828" y="16.8096" width="26" height="10"/>
<path d="M57.7821 19.8357C57.6887 19.55 57.5657 19.294 57.4129 19.0677C57.263 18.8386 57.0834 18.6435 56.8741 18.4822C56.6676 18.321 56.4328 18.198 56.1698 18.1131C55.9067 18.0282 55.6182 17.9858 55.3042 17.9858C54.7895 17.9858 54.3213 18.1188 53.8999 18.3846C53.4784 18.6505 53.1432 19.0423 52.8943 19.5599C52.6454 20.0775 52.521 20.7125 52.521 21.4649C52.521 22.2173 52.6468 22.8523 52.8986 23.37C53.1503 23.8876 53.4912 24.2793 53.9211 24.5452C54.351 24.8111 54.8347 24.944 55.3721 24.944C55.87 24.944 56.3084 24.838 56.6874 24.6258C57.0693 24.4109 57.3663 24.1082 57.5784 23.7179C57.7934 23.3247 57.9009 22.8622 57.9009 22.3305L58.2233 22.3983H55.6097V21.4649H58.9191V22.3983C58.9191 23.114 58.7664 23.7362 58.4609 24.2652C58.1582 24.7941 57.7396 25.2043 57.205 25.4956C56.6733 25.7841 56.0623 25.9284 55.3721 25.9284C54.6028 25.9284 53.9267 25.7473 53.3441 25.3853C52.7642 25.0232 52.3116 24.5084 51.9864 23.8409C51.6639 23.1734 51.5027 22.3814 51.5027 21.4649C51.5027 20.7776 51.5946 20.1596 51.7785 19.6108C51.9652 19.0593 52.2282 18.5897 52.5676 18.2022C52.9071 17.8147 53.3087 17.5177 53.7726 17.3112C54.2365 17.1047 54.747 17.0015 55.3042 17.0015C55.7625 17.0015 56.1896 17.0708 56.5856 17.2094C56.9844 17.3452 57.3394 17.5389 57.6505 17.7906C57.9645 18.0396 58.2261 18.338 58.4354 18.6859C58.6448 19.031 58.789 19.4142 58.8682 19.8357H57.7821ZM59.7062 17.1203H60.9111L63.321 21.1764H63.4229L65.8328 17.1203H67.0378L63.8981 22.2286V25.8096H62.8459V22.2286L59.7062 17.1203ZM68.3986 17.1203H69.6545L72.6075 24.3331H72.7093L75.6623 17.1203H76.9182V25.8096H75.9339V19.2077H75.849L73.1336 25.8096H72.1832L69.4678 19.2077H69.383V25.8096H68.3986V17.1203Z"/>
</mask>
<path d="M57.7821 19.8357C57.6887 19.55 57.5657 19.294 57.4129 19.0677C57.263 18.8386 57.0834 18.6435 56.8741 18.4822C56.6676 18.321 56.4328 18.198 56.1698 18.1131C55.9067 18.0282 55.6182 17.9858 55.3042 17.9858C54.7895 17.9858 54.3213 18.1188 53.8999 18.3846C53.4784 18.6505 53.1432 19.0423 52.8943 19.5599C52.6454 20.0775 52.521 20.7125 52.521 21.4649C52.521 22.2173 52.6468 22.8523 52.8986 23.37C53.1503 23.8876 53.4912 24.2793 53.9211 24.5452C54.351 24.8111 54.8347 24.944 55.3721 24.944C55.87 24.944 56.3084 24.838 56.6874 24.6258C57.0693 24.4109 57.3663 24.1082 57.5784 23.7179C57.7934 23.3247 57.9009 22.8622 57.9009 22.3305L58.2233 22.3983H55.6097V21.4649H58.9191V22.3983C58.9191 23.114 58.7664 23.7362 58.4609 24.2652C58.1582 24.7941 57.7396 25.2043 57.205 25.4956C56.6733 25.7841 56.0623 25.9284 55.3721 25.9284C54.6028 25.9284 53.9267 25.7473 53.3441 25.3853C52.7642 25.0232 52.3116 24.5084 51.9864 23.8409C51.6639 23.1734 51.5027 22.3814 51.5027 21.4649C51.5027 20.7776 51.5946 20.1596 51.7785 19.6108C51.9652 19.0593 52.2282 18.5897 52.5676 18.2022C52.9071 17.8147 53.3087 17.5177 53.7726 17.3112C54.2365 17.1047 54.747 17.0015 55.3042 17.0015C55.7625 17.0015 56.1896 17.0708 56.5856 17.2094C56.9844 17.3452 57.3394 17.5389 57.6505 17.7906C57.9645 18.0396 58.2261 18.338 58.4354 18.6859C58.6448 19.031 58.789 19.4142 58.8682 19.8357H57.7821ZM59.7062 17.1203H60.9111L63.321 21.1764H63.4229L65.8328 17.1203H67.0378L63.8981 22.2286V25.8096H62.8459V22.2286L59.7062 17.1203ZM68.3986 17.1203H69.6545L72.6075 24.3331H72.7093L75.6623 17.1203H76.9182V25.8096H75.9339V19.2077H75.849L73.1336 25.8096H72.1832L69.4678 19.2077H69.383V25.8096H68.3986V17.1203Z" fill="white"/>
<path d="M57.7821 19.8357L57.726 19.854L57.7393 19.8946H57.7821V19.8357ZM57.4129 19.0677L57.3636 19.1L57.3641 19.1007L57.4129 19.0677ZM56.8741 18.4822L56.8378 18.5287L56.8381 18.5289L56.8741 18.4822ZM56.1698 18.1131L56.1879 18.057L56.1698 18.1131ZM52.8943 19.5599L52.9474 19.5854L52.8943 19.5599ZM52.8986 23.37L52.8456 23.3957L52.8986 23.37ZM53.9211 24.5452L53.8901 24.5953L53.9211 24.5452ZM56.6874 24.6258L56.7162 24.6772L56.7163 24.6772L56.6874 24.6258ZM57.5784 23.7179L57.5267 23.6896L57.5266 23.6897L57.5784 23.7179ZM57.9009 22.3305L57.913 22.2728L57.8419 22.2578V22.3305H57.9009ZM58.2233 22.3983V22.4573L58.2354 22.3407L58.2233 22.3983ZM55.6097 22.3983H55.5508V22.4573H55.6097V22.3983ZM55.6097 21.4649V21.406H55.5508V21.4649H55.6097ZM58.9191 21.4649H58.9781V21.406H58.9191V21.4649ZM58.4609 24.2652L58.4099 24.2357L58.4098 24.2359L58.4609 24.2652ZM57.205 25.4956L57.2331 25.5474L57.2332 25.5473L57.205 25.4956ZM53.3441 25.3853L53.3129 25.4353L53.313 25.4353L53.3441 25.3853ZM51.9864 23.8409L51.9333 23.8665L51.9334 23.8667L51.9864 23.8409ZM51.7785 19.6108L51.7226 19.5919L51.7226 19.5921L51.7785 19.6108ZM52.5676 18.2022L52.612 18.241L52.5676 18.2022ZM53.7726 17.3112L53.7486 17.2574L53.7726 17.3112ZM56.5856 17.2094L56.5661 17.265L56.5666 17.2652L56.5856 17.2094ZM57.6505 17.7906L57.6135 17.8365L57.6139 17.8368L57.6505 17.7906ZM58.4354 18.6859L58.385 18.7163L58.3851 18.7164L58.4354 18.6859ZM58.8682 19.8357V19.8946H58.9392L58.9261 19.8248L58.8682 19.8357ZM57.7821 19.8357L57.8381 19.8174C57.7432 19.527 57.6179 19.266 57.4618 19.0348L57.4129 19.0677L57.3641 19.1007C57.5135 19.322 57.6342 19.573 57.726 19.854L57.7821 19.8357ZM57.4129 19.0677L57.4622 19.0355C57.3088 18.801 57.1248 18.6009 56.91 18.4355L56.8741 18.4822L56.8381 18.5289C57.042 18.686 57.2172 18.8762 57.3636 19.1L57.4129 19.0677ZM56.8741 18.4822L56.9104 18.4358C56.6981 18.2701 56.4571 18.1439 56.1879 18.057L56.1698 18.1131L56.1517 18.1692C56.4085 18.252 56.6371 18.3719 56.8378 18.5287L56.8741 18.4822ZM56.1698 18.1131L56.1879 18.057C55.9182 17.97 55.6235 17.9269 55.3042 17.9269V17.9858V18.0447C55.6129 18.0447 55.8952 18.0865 56.1517 18.1692L56.1698 18.1131ZM55.3042 17.9858V17.9269C54.7787 17.9269 54.2996 18.0628 53.8684 18.3348L53.8999 18.3846L53.9313 18.4345C54.343 18.1747 54.8002 18.0447 55.3042 18.0447V17.9858ZM53.8999 18.3846L53.8684 18.3348C53.4363 18.6074 53.0942 19.0083 52.8412 19.5344L52.8943 19.5599L52.9474 19.5854C53.1923 19.0762 53.5206 18.6936 53.9313 18.4345L53.8999 18.3846ZM52.8943 19.5599L52.8412 19.5344C52.5875 20.062 52.462 20.7063 52.462 21.4649H52.521H52.5799C52.5799 20.7187 52.7034 20.093 52.9474 19.5854L52.8943 19.5599ZM52.521 21.4649H52.462C52.462 22.2236 52.5889 22.868 52.8456 23.3957L52.8986 23.37L52.9516 23.3442C52.7047 22.8367 52.5799 22.211 52.5799 21.4649H52.521ZM52.8986 23.37L52.8456 23.3957C53.1015 23.922 53.4494 24.3228 53.8901 24.5953L53.9211 24.5452L53.9521 24.4951C53.5329 24.2359 53.1991 23.8532 52.9516 23.3442L52.8986 23.37ZM53.9211 24.5452L53.8901 24.5953C54.3299 24.8673 54.8245 25.003 55.3721 25.003V24.944V24.8851C54.8449 24.8851 54.3721 24.7548 53.9521 24.4951L53.9211 24.5452ZM55.3721 24.944V25.003C55.8785 25.003 56.3272 24.895 56.7162 24.6772L56.6874 24.6258L56.6586 24.5744C56.2896 24.7809 55.8614 24.8851 55.3721 24.8851V24.944ZM56.6874 24.6258L56.7163 24.6772C57.108 24.4567 57.4128 24.1459 57.6302 23.746L57.5784 23.7179L57.5266 23.6897C57.3197 24.0705 57.0306 24.365 56.6585 24.5745L56.6874 24.6258ZM57.5784 23.7179L57.6301 23.7461C57.8506 23.3428 57.9598 22.8703 57.9598 22.3305H57.9009H57.8419C57.8419 22.8542 57.7361 23.3066 57.5267 23.6896L57.5784 23.7179ZM57.9009 22.3305L57.8887 22.3881L58.2112 22.456L58.2233 22.3983L58.2354 22.3407L57.913 22.2728L57.9009 22.3305ZM58.2233 22.3983V22.3394H55.6097V22.3983V22.4573H58.2233V22.3983ZM55.6097 22.3983H55.6687V21.4649H55.6097H55.5508V22.3983H55.6097ZM55.6097 21.4649V21.5239H58.9191V21.4649V21.406H55.6097V21.4649ZM58.9191 21.4649H58.8602V22.3983H58.9191H58.9781V21.4649H58.9191ZM58.9191 22.3983H58.8602C58.8602 23.1054 58.7094 23.7172 58.4099 24.2357L58.4609 24.2652L58.5119 24.2947C58.8234 23.7553 58.9781 23.1225 58.9781 22.3983H58.9191ZM58.4609 24.2652L58.4098 24.2359C58.1125 24.7554 57.7018 25.1577 57.1768 25.4439L57.205 25.4956L57.2332 25.5473C57.7774 25.2508 58.204 24.8329 58.5121 24.2945L58.4609 24.2652ZM57.205 25.4956L57.1769 25.4438C56.6549 25.727 56.0539 25.8694 55.3721 25.8694V25.9284V25.9873C56.0707 25.9873 56.6916 25.8412 57.2331 25.5474L57.205 25.4956ZM55.3721 25.9284V25.8694C54.6124 25.8694 53.9474 25.6908 53.3752 25.3352L53.3441 25.3853L53.313 25.4353C53.9061 25.8039 54.5932 25.9873 55.3721 25.9873V25.9284ZM53.3441 25.3853L53.3753 25.3353C52.8056 24.9796 52.3602 24.4736 52.0393 23.8151L51.9864 23.8409L51.9334 23.8667C52.2631 24.5433 52.7228 25.0669 53.3129 25.4353L53.3441 25.3853ZM51.9864 23.8409L52.0394 23.8153C51.7216 23.1574 51.5616 22.3745 51.5616 21.4649H51.5027H51.4438C51.4438 22.3882 51.6062 23.1893 51.9333 23.8665L51.9864 23.8409ZM51.5027 21.4649H51.5616C51.5616 20.7828 51.6528 20.1712 51.8343 19.6295L51.7785 19.6108L51.7226 19.5921C51.5364 20.1479 51.4438 20.7724 51.4438 21.4649H51.5027ZM51.7785 19.6108L51.8343 19.6297C52.0188 19.0845 52.2783 18.622 52.612 18.241L52.5676 18.2022L52.5233 18.1634C52.1782 18.5574 51.9115 19.034 51.7227 19.5919L51.7785 19.6108ZM52.5676 18.2022L52.612 18.241C52.9458 17.8598 53.3406 17.568 53.7966 17.365L53.7726 17.3112L53.7486 17.2574C53.2768 17.4674 52.8683 17.7695 52.5233 18.1634L52.5676 18.2022ZM53.7726 17.3112L53.7966 17.365C54.2522 17.1622 54.7545 17.0604 55.3042 17.0604V17.0015V16.9426C54.7396 16.9426 54.2208 17.0472 53.7486 17.2574L53.7726 17.3112ZM55.3042 17.0015V17.0604C55.7565 17.0604 56.1769 17.1288 56.5661 17.265L56.5856 17.2094L56.605 17.1538C56.2022 17.0128 55.7685 16.9426 55.3042 16.9426V17.0015ZM56.5856 17.2094L56.5666 17.2652C56.9592 17.3988 57.308 17.5893 57.6135 17.8365L57.6505 17.7906L57.6876 17.7448C57.3708 17.4885 57.0096 17.2915 56.6046 17.1536L56.5856 17.2094ZM57.6505 17.7906L57.6139 17.8368C57.9223 18.0813 58.1792 18.3743 58.385 18.7163L58.4354 18.6859L58.4859 18.6555C58.273 18.3016 58.0067 17.9978 57.6871 17.7445L57.6505 17.7906ZM58.4354 18.6859L58.3851 18.7164C58.5905 19.0551 58.7323 19.4316 58.8103 19.8466L58.8682 19.8357L58.9261 19.8248C58.8457 19.3968 58.699 19.0068 58.4858 18.6553L58.4354 18.6859ZM58.8682 19.8357V19.7768H57.7821V19.8357V19.8946H58.8682V19.8357ZM59.7062 17.1203V17.0614H59.6008L59.656 17.1511L59.7062 17.1203ZM60.9111 17.1203L60.9618 17.0902L60.9447 17.0614H60.9111V17.1203ZM63.321 21.1764L63.2704 21.2065L63.2875 21.2353H63.321V21.1764ZM63.4229 21.1764V21.2353H63.4564L63.4735 21.2065L63.4229 21.1764ZM65.8328 17.1203V17.0614H65.7993L65.7821 17.0902L65.8328 17.1203ZM67.0378 17.1203L67.088 17.1511L67.1431 17.0614H67.0378V17.1203ZM63.8981 22.2286L63.8479 22.1978L63.8391 22.212V22.2286H63.8981ZM63.8981 25.8096V25.8685H63.957V25.8096H63.8981ZM62.8459 25.8096H62.7869V25.8685H62.8459V25.8096ZM62.8459 22.2286H62.9048V22.212L62.8961 22.1978L62.8459 22.2286ZM59.7062 17.1203V17.1792H60.9111V17.1203V17.0614H59.7062V17.1203ZM60.9111 17.1203L60.8605 17.1504L63.2704 21.2065L63.321 21.1764L63.3717 21.1463L60.9618 17.0902L60.9111 17.1203ZM63.321 21.1764V21.2353H63.4229V21.1764V21.1175H63.321V21.1764ZM63.4229 21.1764L63.4735 21.2065L65.8835 17.1504L65.8328 17.1203L65.7821 17.0902L63.3722 21.1463L63.4229 21.1764ZM65.8328 17.1203V17.1792H67.0378V17.1203V17.0614H65.8328V17.1203ZM67.0378 17.1203L66.9876 17.0894L63.8479 22.1978L63.8981 22.2286L63.9483 22.2595L67.088 17.1511L67.0378 17.1203ZM63.8981 22.2286H63.8391V25.8096H63.8981H63.957V22.2286H63.8981ZM63.8981 25.8096V25.7506H62.8459V25.8096V25.8685H63.8981V25.8096ZM62.8459 25.8096H62.9048V22.2286H62.8459H62.7869V25.8096H62.8459ZM62.8459 22.2286L62.8961 22.1978L59.7564 17.0894L59.7062 17.1203L59.656 17.1511L62.7956 22.2595L62.8459 22.2286ZM68.3986 17.1203V17.0614H68.3397V17.1203H68.3986ZM69.6545 17.1203L69.709 17.098L69.6941 17.0614H69.6545V17.1203ZM72.6075 24.3331L72.553 24.3554L72.568 24.392H72.6075V24.3331ZM72.7093 24.3331V24.392H72.7489L72.7639 24.3554L72.7093 24.3331ZM75.6623 17.1203V17.0614H75.6228L75.6078 17.098L75.6623 17.1203ZM76.9182 17.1203H76.9771V17.0614H76.9182V17.1203ZM76.9182 25.8096V25.8685H76.9771V25.8096H76.9182ZM75.9339 25.8096H75.8749V25.8685H75.9339V25.8096ZM75.9339 19.2077H75.9928V19.1488H75.9339V19.2077ZM75.849 19.2077V19.1488H75.8095L75.7945 19.1853L75.849 19.2077ZM73.1336 25.8096V25.8685H73.1731L73.1881 25.832L73.1336 25.8096ZM72.1832 25.8096L72.1287 25.832L72.1437 25.8685H72.1832V25.8096ZM69.4678 19.2077L69.5223 19.1853L69.5073 19.1488H69.4678V19.2077ZM69.383 19.2077V19.1488H69.324V19.2077H69.383ZM69.383 25.8096V25.8685H69.4419V25.8096H69.383ZM68.3986 25.8096H68.3397V25.8685H68.3986V25.8096ZM68.3986 17.1203V17.1792H69.6545V17.1203V17.0614H68.3986V17.1203ZM69.6545 17.1203L69.6 17.1426L72.553 24.3554L72.6075 24.3331L72.662 24.3107L69.709 17.098L69.6545 17.1203ZM72.6075 24.3331V24.392H72.7093V24.3331V24.2741H72.6075V24.3331ZM72.7093 24.3331L72.7639 24.3554L75.7169 17.1426L75.6623 17.1203L75.6078 17.098L72.6548 24.3107L72.7093 24.3331ZM75.6623 17.1203V17.1792H76.9182V17.1203V17.0614H75.6623V17.1203ZM76.9182 17.1203H76.8593V25.8096H76.9182H76.9771V17.1203H76.9182ZM76.9182 25.8096V25.7506H75.9339V25.8096V25.8685H76.9182V25.8096ZM75.9339 25.8096H75.9928V19.2077H75.9339H75.8749V25.8096H75.9339ZM75.9339 19.2077V19.1488H75.849V19.2077V19.2667H75.9339V19.2077ZM75.849 19.2077L75.7945 19.1853L73.0791 25.7872L73.1336 25.8096L73.1881 25.832L75.9035 19.2302L75.849 19.2077ZM73.1336 25.8096V25.7506H72.1832V25.8096V25.8685H73.1336V25.8096ZM72.1832 25.8096L72.2377 25.7872L69.5223 19.1853L69.4678 19.2077L69.4133 19.2302L72.1287 25.832L72.1832 25.8096ZM69.4678 19.2077V19.1488H69.383V19.2077V19.2667H69.4678V19.2077ZM69.383 19.2077H69.324V25.8096H69.383H69.4419V19.2077H69.383ZM69.383 25.8096V25.7506H68.3986V25.8096V25.8685H69.383V25.8096ZM68.3986 25.8096H68.4576V17.1203H68.3986H68.3397V25.8096H68.3986Z" fill="black" mask="url(#path-6-outside-1_1289_3417)"/>
</svg>
